<svg xmlns="http://www.w3.org/2000/svg" xmlns:xlink="http://www.w3.org/1999/xlink" id="Layer_2_1_" x="0px" y="0px" viewBox="0 0 512 512" style="enable-background:new 0 0 512 512;" xml:space="preserve"><style type="text/css">	.st0{fill:#F5380D;}</style><path class="st0" d="M406.4,204.1c10.5-26.5,27.1-52.8,49.4-78c7.1-8,8-19.5,2.2-28.6c-4.4-7-11.9-10.9-19.7-10.9 c-2.2,0-4.5,0.3-6.7,1c-47.1,13.8-157.1,62.7-160.1,219.1c-1.1,60.4,43,112.3,100.5,118.1c31.7,3.2,63.4-7.1,86.9-28.4 c23.5-21.3,37-51.6,37-83.3C496,260.3,458.5,214,406.4,204.1z M437.5,372.7c-14.9,13.5-33.8,20.7-53.7,20.7c-2.8,0-5.7-0.1-8.5-0.4 c-41.1-4.2-72.6-41.8-71.8-85.6c2-108.2,60.6-156.9,109.1-178.7c-15.4,20.8-27.4,42.1-36,63.8c-3.3,8.4-2.8,17.9,1.5,25.9 c4.5,8.4,12.5,14.3,22,16.3c37,7.7,63.8,40.8,63.8,78.6C464,335.7,454.3,357.5,437.5,372.7L437.5,372.7z"></path><path class="st0" d="M202.5,97.6c-4.4-7-11.9-10.9-19.7-10.9c-2.2,0-4.5,0.3-6.7,1C128.9,101.4,19,150.3,16,306.7v0 c-1.1,60.4,43,112.3,100.5,118.1c31.7,3.2,63.4-7.1,86.9-28.4c23.5-21.3,37-51.6,37-83.3c0-52.9-37.5-99.1-89.6-109 c10.5-26.5,27.1-52.8,49.4-78C207.4,118.1,208.3,106.6,202.5,97.6z M121.2,192.3c-3.3,8.4-2.8,17.9,1.5,25.9 c4.5,8.4,12.5,14.4,22,16.4c37,7.7,63.8,40.8,63.8,78.6c0,22.6-9.7,44.4-26.5,59.6c-14.9,13.5-33.8,20.7-53.7,20.7 c-2.8,0-5.7-0.1-8.5-0.4c-41.1-4.2-72.6-41.8-71.8-85.6c2-108.2,60.6-156.9,109.1-178.7C141.8,149.3,129.8,170.7,121.2,192.3z"></path></svg>