<svg xmlns:sketch="http://www.bohemiancoding.com/sketch/ns" xmlns="http://www.w3.org/2000/svg" xmlns:xlink="http://www.w3.org/1999/xlink" id="Layer_1" x="0px" y="0px" viewBox="0 0 80 80" style="enable-background:new 0 0 80 80;" xml:space="preserve"><style type="text/css">	.st0{fill-rule:evenodd;clip-rule:evenodd;fill:#F5380D;}</style><g id="content">	<g id="content_041-open_quote-text-type-editor" transform="translate(-45 -225)">		<path class="st0" d="M106.3,253.9c2.6-3.6,7.5-7.6,14.2-10.8c1.7-0.9,1-3.5-1-3.2c-14.1,1.8-23.2,8-28.2,17.1   c-1.9,3.4-3,7-3.6,10.8c-0.4,2.4-0.5,4.3-0.5,6.4c0,9.5,7.7,17.1,17.1,17.1s17.1-7.7,17.1-17.1s-7.8-17.1-16.8-17.1   C105.2,255.6,105.3,255.3,106.3,253.9L106.3,253.9z M68.6,253.9c2.6-3.6,7.5-7.6,14.2-10.8c1.7-0.9,1-3.5-1-3.2   c-14.1,1.8-23.2,8-28.2,17.1c-1.9,3.4-3,7-3.6,10.8c-0.4,2.4-0.5,4.3-0.5,6.4c0,9.5,7.7,17.1,17.1,17.1c9.5,0,17.1-7.7,17.1-17.1   S76,256.9,67,256.9C67.5,255.6,67.6,255.3,68.6,253.9L68.6,253.9z"></path>	</g></g></svg>