<svg xmlns="http://www.w3.org/2000/svg" id="Medieval_fantasy" data-name="Medieval fantasy" viewBox="0 0 64 64" width="512" height="512"><g id="Magic_book" data-name="Magic book"><path d="M60,48.021V43a1,1,0,0,0-1.247-.969c-4.776,1.216-9.46,2.22-13.921,2.984C39.594,45.91,35.689,47.367,32,51.5c-3.664-4.1-7.545-5.578-12.832-6.481-4.461-.764-9.145-1.768-13.921-2.984A1,1,0,0,0,4,43v5.021A.966.966,0,0,0,3,49v8a1,1,0,0,0,.953,1l20.724.974c.377.67.62,1.1.847,1.51A1,1,0,0,0,26.4,61H37.6a1,1,0,0,0,.876-.517c.227-.412.47-.839.847-1.51L60.047,58A1,1,0,0,0,61,57V49A.964.964,0,0,0,60,48.021ZM45.168,46.985c4.125-.7,8.436-1.614,12.832-2.7v3.99L34.7,51.6C37.873,48.706,40.929,47.711,45.168,46.985Zm-26.336,0c4.238.726,7.3,1.721,10.472,4.619L6,48.272v-3.99C10.4,45.371,14.707,46.28,18.832,46.985ZM38.673,57a1,1,0,0,0-.829.516c-.242.439-.664,1.184-.832,1.483H26.988c-.17-.3-.59-1.043-.832-1.483A1,1,0,0,0,25.327,57L5,56.046v-5.9L32,54l27-3.85v5.9Z"></path><path d="M46,33a4,4,0,1,0,4-4A4,4,0,0,0,46,33Zm6,0a2,2,0,1,1-2-2A2,2,0,0,1,52,33Z"></path><path d="M13,41a4,4,0,1,0-4-4A4,4,0,0,0,13,41Zm0-6a2,2,0,1,1-2,2A2,2,0,0,1,13,35Z"></path><path d="M19,13a4,4,0,1,0-4-4A4,4,0,0,0,19,13Zm0-6a2,2,0,1,1-2,2A2,2,0,0,1,19,7Z"></path><path d="M40.628,18.929l4.6,1.841,1.841,4.6a1,1,0,0,0,1.858,0l1.841-4.6,4.6-1.841a1,1,0,0,0,0-1.858l-4.6-1.841-1.841-4.6a1,1,0,0,0-1.858,0l-1.841,4.6-4.6,1.841A1,1,0,0,0,40.628,18.929Zm5.744-2a1,1,0,0,0,.557-.558L48,13.692l1.071,2.679a1,1,0,0,0,.557.558L52.308,18l-2.68,1.071a1,1,0,0,0-.557.558L48,22.308l-1.071-2.679a1,1,0,0,0-.557-.558L43.692,18Z"></path><path d="M10.553,23.9l3.7,1.85,1.85,3.7a1,1,0,0,0,1.79,0l1.85-3.7,3.7-1.85a1,1,0,0,0,0-1.79l-3.7-1.85-1.85-3.7a1.042,1.042,0,0,0-1.79,0l-1.85,3.7-3.7,1.85A1,1,0,0,0,10.553,23.9Zm4.894-2a1,1,0,0,0,.448-.448L17,19.236l1.105,2.211a1,1,0,0,0,.448.448L20.764,23l-2.211,1.105a1,1,0,0,0-.448.448L17,26.764,15.9,24.553a1,1,0,0,0-.448-.448L13.236,23Z"></path><path d="M24,35a1,1,0,0,0,1,1h4v4.838l-.949,2.846A1,1,0,0,0,28.4,44.8a6.007,6.007,0,0,0,7.2,0,1,1,0,0,0,.348-1.116L35,40.838V36h4a1,1,0,0,0,1-1V31a1,1,0,0,0-1-1H36V8.32a1,1,0,0,0-.179-.57l-3-4.32a1.036,1.036,0,0,0-1.642,0l-3,4.32A.993.993,0,0,0,28,8.32V30H25a1,1,0,0,0-1,1Zm2-3h3a1,1,0,0,0,1-1V8.634l2-2.881,2,2.881V31a1,1,0,0,0,1,1h3v2H34a1,1,0,0,0-1,1v6a12.418,12.418,0,0,0,.8,2.569,3.992,3.992,0,0,1-3.605,0A12.1,12.1,0,0,0,31,41V35a1,1,0,0,0-1-1H26Z"></path></g></svg>