<svg xmlns="http://www.w3.org/2000/svg" id="Layer_1" viewBox="0 0 256 256" data-name="Layer 1"><g fill="#787878"><path d="m253.78 97a3.5 3.5 0 0 0 .29-4.24c-.52-.78-12.61-18.81-26.79-20.28-.4-.08-.8-.12-1.19-.18a14.8 14.8 0 0 0 1.85-5 9.85 9.85 0 0 0 -.87-7.89 11.11 11.11 0 0 0 -6.46-4.68l-7.26-3.28a2.6 2.6 0 0 0 -.36-.13c-2.66-.87-4.36-2.09-5.07-3.63a5.59 5.59 0 0 1 -.12-3.85 12.48 12.48 0 0 0 2.2-9.24c-1.25-7.63-9-13.2-10.06-13.93-8.26-5-17.32-3.1-20-2.38-10.91-.77-20 6.27-20.5 6.68-.23.2-1.56 1.39-3.45 3.36l-3.84-3.19a3.5 3.5 0 1 0 -4.48 5.39l3.7 3.07c-1.62 2-3.35 4.31-5.07 6.89l-3.08-2.22a3.51 3.51 0 1 0 -4.1 5.69l3.53 2.54c-1.13 2-2.2 4.24-3.19 6.52l-3-1.88a3.51 3.51 0 1 0 -3.71 6l4.23 2.63c-.65 2-1.18 4.14-1.65 6.3l-3.33-.56a3.5 3.5 0 0 0 -1.1 6.92l3.28.52a57 57 0 0 0 -.3 7.79h-2.43a3.51 3.51 0 0 0 0 7h3a144.5 144.5 0 0 0 4.78 23.11 44.42 44.42 0 0 1 -10.46-7.58c-6.11-17.41-16.56-31.27-30.94-40.81a3.51 3.51 0 0 0 -5.35 3.69c0 .11 2.45 11.61-3.91 19.92-4.23 5.54-11.53 8.6-21.69 9.11h-.06-.18a3.45 3.45 0 0 0 -1 .27l-.26.13a3.46 3.46 0 0 0 -.94.72l-.06.09a3.09 3.09 0 0 0 -.44.63c-.06.12-.09.25-.14.37s-.06.08-.07.13a.51.51 0 0 0 0 .13 3.3 3.3 0 0 0 -.15 1.21v.17a3.72 3.72 0 0 0 .28 1l.12.26c0 .07.06.15.1.21s9.19 14.65 5.11 26.11c-1.93 5.42-6.72 9.43-14.23 11.91-.06 0-.1.08-.17.1a3.33 3.33 0 0 0 -1 .62 2.83 2.83 0 0 0 -.28.2 3.39 3.39 0 0 0 -.77 1.29s0 0 0 .07c-.12.37-11.8 37.31-20.21 52.69a3.51 3.51 0 0 0 5 4.62c.42-.27 32.94-21.22 65.06-28-8.78 15.45-29.92 45.29-60 39.78-7.76-1.42-13-5-16-11-10.59-20.72 9.21-61.89 9.41-62.28a3.5 3.5 0 0 0 -5.68-4c-1.26 1.39-30.66 32.39-28.89 63.04.69 12.16 6.18 22.57 16.3 30.94a51.86 51.86 0 0 0 33.84 12.08c10.7 0 22.31-2.87 34.57-8.63a150 150 0 0 0 33.68-22.19h94.86a3.51 3.51 0 0 0 3.47-4c-.85-5.52-5.63-16.15-17.65-18.79-2.47-6-10.27-27.47-3.17-47.21.11-.26 10.21-25.43-17.71-44.12a15 15 0 0 1 -6.87-9.91c-1.53-8 3.07-18.29 7.89-25.27a3.5 3.5 0 0 0 -5.77-4c-2.73 3.95-11.43 17.83-9 30.57a21.89 21.89 0 0 0 9.86 14.41c23 15.4 15.47 34.79 15.08 35.76-9.37 26 3.53 53.25 4.09 54.4a3.5 3.5 0 0 0 2.68 1.94 15.43 15.43 0 0 1 12.33 9.23h-13.55a24.05 24.05 0 0 0 -16-12.64c3.88-6.22 8.92-16.91 5.34-26.41a13.31 13.31 0 0 0 -7.3-7.73c-8.6-3.71-20.27 1-21.57 1.5a3.51 3.51 0 0 0 2.7 6.47c2.78-1.16 11.1-3.69 16.09-1.54a6.23 6.23 0 0 1 3.52 3.77c3.23 8.57-4.6 20.74-7.89 24.71a3.49 3.49 0 0 0 -.42 3.81 3.4 3.4 0 0 0 3.32 1.92 15.91 15.91 0 0 1 13.85 6.12h-69.53a2.89 2.89 0 0 0 -.51.11 2.77 2.77 0 0 0 -.76.15 3.82 3.82 0 0 0 -.7.42c-.13.1-.29.15-.42.26-.55.52-55.6 51.06-93.88 19.41-8.55-7.08-13.2-15.8-13.78-25.93-.79-13.68 5.74-27.91 12.58-38.81-4.27 14.48-7.23 32.82-.74 45.66 4 8 11.1 12.91 21 14.73 38.22 7 62.88-34.18 70-48.13a69 69 0 0 1 17.75-.09 1.34 1.34 0 0 0 .2 0 2.74 2.74 0 0 0 .28 0 3.57 3.57 0 0 0 .72-.1h.16.05s.07-.05.11-.06a2.88 2.88 0 0 0 .59-.28 2.94 2.94 0 0 0 .46-.25l.13-.1h.07c.11-.1.16-.24.26-.34a3.37 3.37 0 0 0 .42-.5 1.74 1.74 0 0 1 .11-.18 3.11 3.11 0 0 0 .18-.54 2.83 2.83 0 0 0 .17-.4 136 136 0 0 0 1-39.21 116.72 116.72 0 0 0 -2-11.81c3.75 2.43 8.21 4.54 12.43 4.54a3.5 3.5 0 0 0 3.3-4.67c-.06-.18-6.31-18-6.88-34.21-1-28.78 22.87-50 23-50.12s7.63-5.9 16.05-5a3.48 3.48 0 0 0 1.47-.17c.08 0 8-2.63 14.7 1.39 1.72 1.2 6.32 5.2 7 9.2a5.47 5.47 0 0 1 -1.17 4.35 3.18 3.18 0 0 0 -.39.66 12.68 12.68 0 0 0 0 9.74c1.52 3.41 4.59 5.91 9.14 7.43l7.43 3.27a3.86 3.86 0 0 0 .68.22 4.27 4.27 0 0 1 2.4 1.57 3.33 3.33 0 0 1 0 2.58 4.25 4.25 0 0 0 -.12.62c0 .44-.64 4.31-5.42 5.82-1.21.17-8.31 1-14.17-2.63a3.51 3.51 0 0 0 -3.65 6 26.67 26.67 0 0 0 10.4 3.56 19.54 19.54 0 0 0 -4.28 15.91 12.37 12.37 0 0 0 .22 1.83c4 20.46 26.24 26 27.19 26.2a3.21 3.21 0 0 0 .81.1 3.51 3.51 0 0 0 2.82-5.59 2.94 2.94 0 0 1 -.74-1.88 1.06 1.06 0 0 1 0-.19c6.85 1.73 12.42 2.8 12.68 2.85a3.49 3.49 0 0 0 4.06-4.27c-.09-.4-2.11-8.58-5-17.19a10.08 10.08 0 0 1 3.67 1.09 3.51 3.51 0 0 0 4.23-.86zm-210.06 89.28c6.33-14.74 12.75-34.18 14.92-40.91 9.07-.05 41.62.88 61.42 15.74-28.26.31-60.39 16.17-76.34 25.17zm25.48-47.64a22.92 22.92 0 0 0 6.6-9.64c2.92-8.18.9-17-1.52-23.37 12.38 6.17 35.46 20.76 47.51 48.09-16.41-11.02-38.59-14.22-52.59-15.08zm58.5 11.1c-12.48-27.56-34.95-42.61-48.45-49.54a28.62 28.62 0 0 0 14.94-9.93 30.37 30.37 0 0 0 5.81-17.53c26.19 21.74 28.68 57.14 27.7 77zm86.65-66.5a5.89 5.89 0 0 1 8.33-.21c1.43 1.35 3.63 7.18 5.43 13.28-6.18-1.48-12.12-3.39-13.55-4.75a5.9 5.9 0 0 1 -.21-8.32zm23.65 12c1.91 5.26 3.57 10.9 4.68 14.9-2.48-.55-5.56-1.27-8.8-2.13a3.54 3.54 0 0 0 -2.83.47 9.45 9.45 0 0 0 -3.76 5.53c-5.27-2.44-12.73-7.34-15.58-16 5.56 3.25 16.91 5.61 20.63 6.33a3.68 3.68 0 0 0 .66.06 3.5 3.5 0 0 0 3.4-4.34c-.9-3.66-3.81-14.77-7.31-20.19 5 1.48 10 5.85 13.81 10a13.62 13.62 0 0 0 -3 1 3.5 3.5 0 0 0 -1.9 4.38z"></path><path d="m199.08 35.63-10.68-7.63a6.57 6.57 0 0 0 10.68 7.66z"></path><path d="m213 69.87a3.43 3.43 0 0 1 -1.32-.27l-4.8-2a3.5 3.5 0 0 1 2.66-6.48l4.79 2a3.51 3.51 0 0 1 -1.33 6.75z"></path></g></svg>