<svg xmlns="http://www.w3.org/2000/svg" id="icon" height="512" viewBox="0 0 340 340" width="512"><path d="m105.871 163.84c-10.742-7.9-23.394-11.539-23.921-11.709a3.352 3.352 0 0 0 -4.458 3.366v27.279a3.5 3.5 0 0 0 2.5 3.355 81.466 81.466 0 0 1 21.738 10.5c3.006 1.558 5.561-.512 5.561-2.829v-27.144a3.5 3.5 0 0 0 -1.42-2.818zm-5.575 23.6a87.925 87.925 0 0 0 -15.8-7.222v-19.829a76.543 76.543 0 0 1 15.8 8.076z"></path><path d="m80.219 83.841c1.088.246 3.838.91 4.134.91 3.991.05 4.814-5.888.889-6.885q-1.725-.454-3.477-.853a3.5 3.5 0 0 0 -1.546 6.828z"></path><path d="m104.236 92.5c22.528 9.993 38.595 27.353 38.754 27.527a4.126 4.126 0 0 0 4.945.217 3.41 3.41 0 0 0 .219-4.942c-.689-.754-17.169-18.594-41.079-29.2a3.5 3.5 0 0 0 -2.839 6.398z"></path><path d="m80.219 109.7c35.23 7.981 62.544 35.987 62.833 36.252a3.445 3.445 0 0 0 4.948.089 3.6 3.6 0 0 0 .092-4.947c-1.166-1.211-29.009-29.767-66.326-38.221a3.5 3.5 0 0 0 -1.547 6.827z"></path><path d="m81.766 128.723a3.5 3.5 0 0 0 -1.547 6.827c35.23 7.981 62.561 35.97 62.833 36.252a3.991 3.991 0 0 0 4.948.089 3.419 3.419 0 0 0 .092-4.947c-1.166-1.211-29.009-29.767-66.326-38.221z"></path><path d="m122.73 172.557a3.5 3.5 0 0 0 -3.4 6.119c12.46 6.928 23.568 18.813 23.678 18.932.69.742 3.26 1.675 4.946.184a3.47 3.47 0 0 0 .186-4.945c-.484-.52-11.956-12.808-25.41-20.29z"></path><path d="m122.729 198.412a3.5 3.5 0 0 0 -3.4 6.119c12.46 6.928 23.568 18.813 23.678 18.932.69.742 3.309 1.675 4.946.184a3.488 3.488 0 0 0 .186-4.945c-.483-.52-11.955-12.809-25.41-20.29z"></path><path d="m331.106 110.9a171.029 171.029 0 0 0 -59.119-17.048 3.5 3.5 0 0 0 -.757 6.953 164.368 164.368 0 0 1 54.792 15.4v178.709c-56.72-25.19-111-16.435-153 .142v-178.8c4.64-2.394 29.355-11.585 51.317-14.388a3.5 3.5 0 0 0 -.99-6.932c-21.932 2.84-46.4 11.616-52.333 14.542-23.522-36.4-60.982-64.449-126.009-70.292a3.485 3.485 0 0 0 -3.753 3.491v56c-5.922 1.635-20.582 6.013-32.444 12.261a3.47 3.47 0 0 0 -1.832 3.077v215.854a3.586 3.586 0 0 0 4.456 3.491c86.576-24.222 145.229-3.137 158.1-.1 12.9-3.036 72.506-24.117 159.029.1 2.867.532 4.456-.931 4.456-3.469v-215.869a3.492 3.492 0 0 0 -1.913-3.122zm-317.128 5.264a174.721 174.721 0 0 1 27.276-10.2v122.836a3.5 3.5 0 0 0 3.246 3.5c59.423 5.418 92.651 28.916 116.473 60.7-43.463-15.263-90.383-22.42-147 1.918zm152.044 208.927c-44.022-12.282-88.592-15.48-152.044.309v-7.49c67.98-29.651 141.1-4.207 152.044-.072zm0-14.729c-40.945-14.008-97.511-22.173-152.044-.067v-7.656c54.679-26.459 113.444-16.715 152.044.047zm0-22.4c-4.548-6.351-36.4-56.488-117.768-62.39v-179.095c59.8 5.691 98.087 35.322 117.768 68.407zm160 37.433c-52.979-15.514-117.215-11.545-153-.287v-7.188c10.3-3.885 84.571-29.854 153-.01zm0-15.1c-54.437-22.178-112.194-13.838-153 .153v-7.748c12.5-5.553 83.087-33.867 153-.061z"></path><path d="m216.218 50.288a3.5 3.5 0 0 0 .561 3.444l10.882 13.368-6.052 16.232a3.526 3.526 0 0 0 3.28 4.723c-.177.369 12.1-3.6 12.365-3.625l-1.194 48.621-4.794 6.419c-7.034 9.763-5.552 18.207.666 21.75-4.056 7.128-4.475 16.855 2.875 22.825l-.844 34.366c-.243 5.479 3.851 10.965 9.421 10.921h8.683c5.571.044 9.663-5.44 9.421-10.921-.127-.248-1.32-58.173-1.451-58.387l5.859-7.589c4.875-5.483 9.012-17.6 1.809-23.779 3.418-7.192 1.753-18-8.885-18.89l-.62-25.34 11.338 3.474a3.525 3.525 0 0 0 4.3-4.57l-6.047-16.23 10.882-13.364a3.5 3.5 0 0 0 -2.134-5.661l-16.79-2.822-9.1-13.791a3.5 3.5 0 0 0 -5.841 0l-9.1 13.791-16.789 2.822a3.5 3.5 0 0 0 -2.701 2.213zm45.722 68.712c1.323 4.364-1.422 8.334-1.631 8.626l-14.645 17.536a3.5 3.5 0 1 0 5.373 4.487l12.611-15.1c2.371 3.8.15 9.289-3.252 13.551l-15.089 19.541a3.5 3.5 0 0 0 5.541 4.279l2.419-3.134 1.223 49.792c-.026 1.7-.642 3.514-2.422 3.749h-8.684c-1.782-.232-2.395-2.051-2.423-3.749-.021-.405.929-35.412.849-35.794a3.485 3.485 0 0 0 -1.414-3.244c-8.85-5.862-1.9-16.474.457-19.176a3.509 3.509 0 0 0 -4.167-5.45 1.7 1.7 0 0 1 -2.228-.461c-1.422-1.714-1.268-5.831 2.424-10.809l19.691-26.366c1.418-1.448 4.991.182 5.367 1.722zm-18.64 4.351 1.009-41.087 3.417-1.045 3.416 1.046.733 29.812c-.14-.202-8.237 10.887-8.575 11.275zm-4.936-71.451a3.5 3.5 0 0 0 2.341-1.524l7.021-10.636 7.02 10.636a3.5 3.5 0 0 0 2.341 1.524l12.359 2.077-8.346 10.253a3.5 3.5 0 0 0 -.566 3.433l4.274 11.465-16.058-4.915a2.711 2.711 0 0 0 -2.049 0l-16.055 4.915 4.274-11.465a3.5 3.5 0 0 0 -.566-3.433l-8.348-10.253z"></path><path d="m212.7 182.179a3.5 3.5 0 0 0 -6.984-.056c-1.294 17.638-12.844 21.928-13.308 22.093a3.515 3.515 0 0 0 .04 6.649c.121.039 12.133 4.113 13.265 22.043a3.5 3.5 0 0 0 6.98.076c1.55-18.249 12.731-21.951 13.172-22.089a3.518 3.518 0 0 0 .075-6.7c-.496-.162-12.212-4.163-13.24-22.016zm-3.442 36.121a28.691 28.691 0 0 0 -8.711-10.807 29.289 29.289 0 0 0 8.56-10.651 28.118 28.118 0 0 0 8.618 10.7 28.39 28.39 0 0 0 -8.467 10.758z"></path><path d="m291.626 176.436a3.5 3.5 0 0 0 6.98.076c1.55-18.248 12.732-21.95 13.173-22.089a3.518 3.518 0 0 0 .074-6.7c-.5-.162-12.215-4.163-13.24-22.016-.282-4.293-6.628-4.367-6.984-.055-1.294 17.637-12.844 21.927-13.308 22.091a3.524 3.524 0 0 0 .013 6.641c.497.17 12.176 4.349 13.292 22.052zm3.392-36.064a28.116 28.116 0 0 0 8.618 10.7 28.386 28.386 0 0 0 -8.467 10.754 28.7 28.7 0 0 0 -8.712-10.807 29.277 29.277 0 0 0 8.561-10.647z"></path><path d="m247.726 20.393a3.5 3.5 0 0 0 3.5-3.5v-6.9a3.5 3.5 0 0 0 -7 0v6.9a3.5 3.5 0 0 0 3.5 3.5z"></path><path d="m213.692 32.494a3.5 3.5 0 0 0 4.649-5.234l-4.433-3.936a3.5 3.5 0 1 0 -4.648 5.234z"></path><path d="m279.436 33.377a3.489 3.489 0 0 0 2.323-.883l4.432-3.936a3.5 3.5 0 0 0 -4.648-5.234l-4.433 3.936a3.518 3.518 0 0 0 2.326 6.117z"></path></svg>