<svg xmlns="http://www.w3.org/2000/svg" id="Layer_1" viewBox="0 0 510.459 510.459"><g><g><path d="m247.729 0h15v42.558h-15z"></path><path d="m165.548 34.04h15v42.559h-15z" transform="matrix(.707 -.707 .707 .707 11.569 138.568)"></path><path d="m316.131 47.819h42.559v15h-42.559z" transform="matrix(.707 -.707 .707 .707 59.718 254.8)"></path><path d="m350.171 130h42.559v15h-42.559z"></path><path d="m117.729 130h42.559v15h-42.559z"></path><path d="m424.244 280.949-10.057-25.501c-9.554.113-19.066-.19-50.072 2.081-10.935-23.692-34.714-39.164-61.276-39.164-8.761.179-16.631-7.227-16.998-15.963 20.891-17.949 34.536-51.349 34.536-75.579 0-35.923-29.226-65.148-65.148-65.148s-65.148 29.225-65.148 65.148c0 24.229 13.644 57.628 34.534 75.577-.564 8.895-7.961 15.965-16.996 15.965-26.137-.279-50.962 15.863-61.53 39.74-30.96-2.618-40.055-2.473-49.785-2.739l-10.089 25.583-31.306-5.732v86.168h15v-68.172l145.393 26.621c3.509.642 6.694 2.331 9.149 4.747v155.107c0 3.897.736 7.624 2.063 11.059l-156.605-25.21v-89.151h-15v101.929l191.266 30.79c5.722 1.805 12.384 1.806 18.106 0 0 0 127.399-20.505 127.399-20.505l-2.383-14.81-105.353 16.957c1.328-3.435 2.063-7.162 2.063-11.06v-155.106c2.455-2.416 5.641-4.105 9.149-4.747l145.393-26.621v172.323l-36.252 5.834 2.383 14.81 48.869-7.866v-203.097zm-203.473-105.894c-9.531-14.798-15.69-33.73-15.69-48.231 2.752-66.523 97.551-66.514 100.297 0-1.155 44.654-46.647 108.591-84.607 48.231zm34.458 39.975c5.967 0 11.695-1.385 17.11-3.843 2.106 6.661 6.691 12.757 12.568 16.699l-29.678 17.83-29.693-17.839c5.865-3.968 10.345-9.829 12.572-16.695 5.419 2.462 11.151 3.848 17.121 3.848zm-84.739 33.711c9.452-9.443 21.864-14.834 35.135-15.327l49.604 29.801 49.619-29.81c18.006.682 34.146 10.494 43.13 25.621-36.855 3.297-81.237 13.962-93.108 29.224-12.266-14.304-56.792-24.941-92.776-28.497 2.304-4.009 5.117-7.733 8.396-11.012zm84.739 246.628-5.37-.865c-6.06-2.204-10.408-8.005-10.408-14.817v-137.984c9.223 5.731 22.333 5.731 31.557 0v137.984c0 6.812-4.348 12.613-10.409 14.817zm37.227-190.29c-9.988 1.829-18.624 8.266-23.102 17.221-5.663 11.588-22.59 11.584-28.25 0-4.478-8.955-13.113-15.392-23.102-17.221l-116.75-21.376 5.159-13.081c29.914.159 141.002 10.069 141.317 35.344h15c-.118-28.241 118.522-35.9 141.286-35.424l5.191 13.161z"></path></g><g><path d="m128.039 372.985h15v15h-15z"></path><path d="m158.039 372.985h15v15h-15z"></path></g></g><g></g><g></g><g></g><g></g><g></g><g></g><g></g><g></g><g></g><g></g><g></g><g></g><g></g><g></g><g></g></svg>