<svg xmlns="http://www.w3.org/2000/svg" id="Layer_1" viewBox="0 0 500 500"><path clip-rule="evenodd" d="m428.16 236.399v-16.461c0-3.503 2.837-6.347 6.346-6.347 3.498 0 6.353 2.843 6.353 6.347v16.461h16.45c3.509 0 6.347 2.837 6.347 6.352 0 3.498-2.837 6.347-6.347 6.347h-16.45v16.456c0 3.504-2.855 6.347-6.353 6.347-3.509 0-6.346-2.843-6.346-6.347v-16.456h-16.455c-3.509 0-6.347-2.849-6.347-6.347 0-3.515 2.837-6.352 6.347-6.352zm-335.845-105.601c0-3.509 2.843-6.347 6.347-6.347h16.461v-16.45c0-3.515 2.837-6.352 6.352-6.352 3.498 0 6.347 2.837 6.347 6.352v16.45h16.45c3.504 0 6.353 2.837 6.353 6.347 0 3.503-2.849 6.352-6.353 6.352h-16.45v16.45c0 3.509-2.849 6.352-6.347 6.352-3.515 0-6.352-2.843-6.352-6.352v-16.45h-16.461c-3.504 0-6.347-2.849-6.347-6.352zm305.306 3.676c7.932 0 14.382 6.456 14.382 14.382s-6.45 14.388-14.382 14.388c-7.926 0-14.376-6.461-14.376-14.388 0-7.926 6.45-14.382 14.376-14.382zm0 41.468c14.939 0 27.081-12.153 27.081-27.087 0-14.928-12.142-27.081-27.081-27.081-14.928 0-27.075 12.153-27.075 27.081 0 14.934 12.147 27.087 27.075 27.087zm-337.654 41.865c7.932 0 14.376 6.45 14.376 14.382 0 7.926-6.444 14.376-14.376 14.376s-14.382-6.45-14.382-14.376c0-7.932 6.45-14.382 14.382-14.382zm0 41.457c14.934 0 27.075-12.142 27.075-27.075 0-14.934-12.142-27.081-27.075-27.081s-27.081 12.148-27.081 27.081 12.148 27.075 27.081 27.075zm202.548-177.114c-2.481-2.475-2.481-6.496 0-8.971l17.644-17.639c3.027-3.032 3.027-7.966 0-10.993-2.487-2.475-2.487-6.502 0-8.977 2.475-2.481 6.49-2.481 8.977 0 7.973 7.964 7.984 20.953 0 28.942l-17.644 17.638c-2.484 2.483-6.485 2.48-8.977 0zm85.441 12.245-8.983 8.977c-3.027-3.038-7.955-3.027-10.982 0l-17.639 17.633c-2.486 2.479-6.503 2.482-8.983 0-2.481-2.476-2.481-6.496 0-8.972l17.639-17.638c7.978-7.984 20.964-7.984 28.948 0zm-51.411-16.392c-2.487 2.475-2.487 6.496 0 8.983 2.476 2.476 6.5 2.472 8.972 0l29.304-29.304c2.487-2.487 2.487-6.507 0-8.983-2.475-2.481-6.496-2.481-8.977 0zm-30.825 96.94-57.143-57.131 12.986-27.661 71.806 71.806zm-100.341 34.835 8.363 8.363-15.772 7.409zm48.241-10.367-29.511-29.51-12.986 27.661 14.836 14.841zm-23.773-41.727 35.989 35.989 27.667-12.992-50.664-50.653zm22.176-77.074-73.018 155.462c-2.529 5.374 3.076 10.949 8.443 8.455l155.473-73.03 13.153 13.159c2.476 2.482 6.504 2.484 8.977 0 2.487-2.476 2.487-6.49 0-8.977l-16.306-16.312-100.904-100.898c-2.475-2.476-6.502-2.476-8.977 0-2.487 2.475-2.487 6.496 0 8.977zm67.309 212.312c0 16.174-13.159 29.332-29.333 29.332-16.168 0-29.332-13.158-29.332-29.332 0-16.18 13.164-29.332 29.332-29.332 16.174-.001 29.333 13.152 29.333 29.332zm-71.364 0c0 23.175 18.856 42.031 42.031 42.031s42.032-18.856 42.032-42.031-18.856-42.026-42.032-42.026c-23.175 0-42.031 18.85-42.031 42.026zm-97.612 37.023c9.264 0 16.806 7.535 16.806 16.806s-7.541 16.806-16.806 16.806c-9.27 0-16.811-7.536-16.811-16.806s7.541-16.806 16.811-16.806zm0 46.311c16.26 0 29.499-13.239 29.499-29.505 0-16.272-13.239-29.505-29.499-29.505-16.277 0-29.511 13.233-29.511 29.505 0 16.266 13.233 29.505 29.511 29.505zm279.293-12.699c-9.27 0-16.806-7.536-16.806-16.806s7.536-16.806 16.806-16.806 16.806 7.535 16.806 16.806-7.536 16.806-16.806 16.806zm0-46.311c-16.266 0-29.505 13.233-29.505 29.505 0 16.266 13.239 29.505 29.505 29.505 16.271 0 29.505-13.239 29.505-29.505 0-16.272-13.234-29.505-29.505-29.505zm70.37 34.467c.936-1.08 1.39-2.47 1.298-3.912-.326-4.81-6.319-6.717-9.425-3.153l-36.885 42.37c-13.455 15.46-37.261 15.458-50.716 0l-32.779-37.643-7.076 8.586 30.435 36.92c5.1 6.186 7.685 13.382 7.685 21.389v34.881c0 1.327 1.114 2.441 2.441 2.441h49.303c1.321 0 2.447-1.114 2.447-2.441v-34.881c0-8.007 2.579-15.203 7.673-21.389l35.484-43.042c.035-.045.081-.091.115-.126zm-153.79 8.351 54.685-66.327c2.11-2.507 3.176-5.302 2.946-8.644-.722-10.525-13.783-14.645-20.522-6.892l-56.85 65.304c-9.46 10.873-22.078 16.616-36.489 16.616s-27.029-5.744-36.483-16.616l-56.856-65.304c-2.039-2.349-4.894-3.762-8.035-3.98-10.182-.665-16.623 11.101-9.54 19.517l54.685 66.327c7.426 9.023 11.045 19.086 11.045 30.774v53.76c0 3.969 3.228 7.197 7.191 7.197h75.988c3.963 0 7.191-3.228 7.191-7.197v-53.76c-.001-11.689 3.623-21.752 11.044-30.775zm-161.102 34.818 30.435-36.92-7.076-8.598-32.773 37.655c-13.453 15.46-37.27 15.458-50.722 0l-36.885-42.382c-.942-1.068-2.252-1.712-3.693-1.815-4.561-.318-7.73 4.987-4.314 9.018l35.478 43.042c5.095 6.186 7.673 13.382 7.673 21.389v34.881c0 1.327 1.126 2.441 2.447 2.441h49.303c1.327 0 2.441-1.114 2.441-2.441v-34.881c.001-8.007 2.586-15.203 7.686-21.389zm328.849-47.947c-1.112-16.141-21.19-22.653-31.653-10.631l-36.891 42.382c-8.409 9.645-23.163 9.645-31.567 0l-34.169-39.252 30.969-37.557c14.058-16.654 1.442-41.816-20.171-40.314-6.525.442-12.464 3.4-16.737 8.305l-56.85 65.305c-7.07 8.121-16.134 12.251-26.909 12.251s-19.832-4.13-26.908-12.251l-56.85-65.305c-14.169-16.27-41.265-7.416-42.773 14.348-.448 6.496 1.631 12.762 5.87 17.662l30.964 37.557-34.169 39.252c-8.406 9.647-23.158 9.644-31.561 0l-36.897-42.382c-10.459-12.016-30.535-5.519-31.653 10.631-.333 4.79 1.206 9.42 4.325 13.038l35.438 42.997c3.257 3.952 4.767 8.179 4.767 13.302v34.881c0 8.357 6.795 15.14 15.146 15.14h49.303c8.357 0 15.14-6.783 15.14-15.14v-34.881c0-5.123 1.522-9.351 4.779-13.302l28.873-35.03c5.671 6.805 8.323 14.038 8.323 22.9v53.76c0 10.97 8.926 19.896 19.89 19.896h75.988c10.964 0 19.89-8.926 19.89-19.896v-53.76c0-8.861 2.658-16.095 8.328-22.9l28.867 35.03c3.257 3.952 4.779 8.179 4.779 13.302v34.881c0 8.357 6.783 15.14 15.14 15.14h49.303c8.351 0 15.146-6.783 15.146-15.14v-34.881c0-5.123 1.51-9.351 4.773-13.302l35.432-42.997c3.119-3.62 4.664-8.249 4.325-13.039z" fill-rule="evenodd"></path></svg>