<svg xmlns="http://www.w3.org/2000/svg" id="Layer_1" height="512" viewBox="0 0 64 64" width="512"><path d="m32 4c-15.439 0-28 12.561-28 28s12.561 28 28 28 28-12.561 28-28-12.561-28-28-28zm0 54c-14.336 0-26-11.664-26-26s11.664-26 26-26c14.337 0 26 11.664 26 26s-11.663 26-26 26z"></path><path d="m46 34h-28c-.524 0-.96.405-.998.929-.019.261-.409 6.432 3.698 10.841 2.613 2.807 6.415 4.23 11.3 4.23s8.687-1.423 11.3-4.23c4.106-4.41 3.716-10.581 3.697-10.841-.037-.524-.473-.929-.997-.929zm-4.176 10.42c-2.22 2.375-5.524 3.58-9.824 3.58-4.299 0-7.605-1.205-9.824-3.58-2.648-2.834-3.112-6.675-3.178-8.42h26.005c-.066 1.745-.53 5.585-3.179 8.42z"></path><path d="m22.5 24c1.654 0 3 1.346 3 3h2c0-2.757-2.243-5-5-5s-5 2.243-5 5h2c0-1.654 1.346-3 3-3z"></path><path d="m41.5 24c1.654 0 3 1.346 3 3h2c0-2.757-2.243-5-5-5s-5 2.243-5 5h2c0-1.654 1.346-3 3-3z"></path></svg>