<svg xmlns="http://www.w3.org/2000/svg" id="icon" height="512" viewBox="0 0 340 340" width="512"><path d="m334.556 26.112a3.551 3.551 0 0 0 -2.272-3.16l-22.773-8.505a3.5 3.5 0 0 0 -2.541.035l-88.885 36.075c-4.189 1.775-1.69 8.162 2.633 6.486l87.621-35.562 13.47 5.031-114.519 50.898a3.5 3.5 0 1 0 2.843 6.4l113.9-50.621-5.783 12.647-114.85 56.203a34.669 34.669 0 0 1 -5.218-16.785l.379-7.583a10.89 10.89 0 0 1 1.93-5.531c7.576-11.43 6.566-24.972 6.485-26.007-5.2-37.659-35.854-37.387-38.547-37.291-9.142.009-17.277 1.97-24.18 5.827a3.5 3.5 0 1 0 3.415 6.111c5.863-3.277 12.87-4.938 20.827-4.938 1.607-.091 26.657-1.677 31.534 31.118.061 1.149.515 12.635-5.328 21.252-3.18 4.239-3.258 9.881-3.414 14.852a131.843 131.843 0 0 1 -30.934 10.157c1.039-12.766 5.687-19.507 9.5-22.926 5.345-4.756 5.82-10.724 5.543-17.481a3.5 3.5 0 0 0 -2.928-3.453c-23.287-3.853-35.547-28.743-35.666-28.99a3.523 3.523 0 0 0 -5.36-1.2 74.679 74.679 0 0 0 -12.5 13.015c-8.349 10.566-8.939 22.9-8.745 35.714.038 10.392-.211 17 1.145 25.99l-36.07 14.639-9.568-21.588a3.522 3.522 0 0 0 -4.623-1.78l-21.2 9.426a3.5 3.5 0 0 0 -1.791 4.587l9.864 22.817a13.483 13.483 0 0 0 -6.728 1.381l-28.169 13.843a13.5 13.5 0 0 0 -7.453 14.173c1.231 7.352 4.3 19.222 11.226 22.233 2.321 6.366 4.539 12.991 10.329 16.366 7.177 36.5 18.912 58.221 24.77 67.33-11.239 14.928 9.9 26.59 21.665 27.17-8.94 13.352-18.982 27.118-29.921 41-2.781 3.651 2.578 7.9 5.5 4.332 12.092-15.346 23.1-30.557 32.759-45.244 19.528-1.011 28-14.609 27.24-26.3a92.493 92.493 0 0 0 8.1-7.393q1.99 4.168 4.528 8.362v19.079c-5.16 4.216-21.964 20.023-24.745 49a3.521 3.521 0 0 0 3.484 3.834h72.94c4.577-.073 4.62-6.919 0-7h-27.275c.711-5.524 2.415-12.119 6.317-17.364 6.081-8.693 20.287-8.695 26.367 0 4.827 6.488 6.292 15.046 6.672 21.083a3.5 3.5 0 0 0 3.493 3.28h64.833a3.5 3.5 0 0 0 2.617-1.176c2.795-2.135-3.509-35.4-27.834-51.848v-19.34c.616-1.935 3.5-10.313 10.561-22.009a79.922 79.922 0 0 0 9.562-22.219 149.282 149.282 0 0 1 12.805 35.736c-9.721 3.8-7.824 18.75 2.538 20.1 1.186 15.474 3 41.964 2.85 57.22a3.5 3.5 0 0 0 7 .07c.149-14.9-1.534-40.136-2.726-55.921a87.9 87.9 0 0 0 16.423.578 26.5 26.5 0 0 0 4.49 7.193c1.255 20.881-2.06 47.409-2.094 47.675-.5 4.559 6.278 5.449 6.945.881a334.057 334.057 0 0 0 2.4-42.073 14.494 14.494 0 0 0 13.546.3 279.9 279.9 0 0 1 -4.382 40.671 3.5 3.5 0 1 0 6.874 1.322 282.352 282.352 0 0 0 4.645-49.853c4.932-9.555 7.007-40.476-17.342-53.082-1.992-11.281-3.277-13.759-6.254-25.419-1.242-4.428-7.864-2.7-6.772 1.774.528 2.015 1 3.816 1.383 5.242a51.9 51.9 0 0 1 -11 1.255 5.47 5.47 0 0 1 -5.248-3.917c-.62-2.07-1.286-4.2-1.97-6.357a71.779 71.779 0 0 0 22.185-6.646 3.5 3.5 0 0 0 1.894-3.834 74.819 74.819 0 0 1 -1.213-16.615 30.1 30.1 0 0 0 -.426-6.905c-.856-4.515-7.6-3.367-6.9 1.185a23.491 23.491 0 0 1 .338 5.292 78.232 78.232 0 0 0 .869 15.684 64.741 64.741 0 0 1 -20.441 5.2 5.706 5.706 0 0 1 -5.1-2.394 68.3 68.3 0 0 0 -8.545-9.691c18.386-27.12 29.451-15.4 35.626-26.828 6.066-12.074-12.846-29.1-31.009-29.116-16.491-.824-26.645-4.633-32.26-7.683a12.265 12.265 0 0 0 -11.357-.185 49.767 49.767 0 0 1 -8.876-7.686l114.766-56.168a3.494 3.494 0 0 0 1.645-1.688l10.148-22.194a3.779 3.779 0 0 0 .313-1.575zm-210.039 10.288a69.179 69.179 0 0 1 8.151-9.046c4.593 7.605 16.391 23.8 35.718 28.327.244 3.438-.525 7.124-3.218 9.4-4.956 4.447-11.051 13.158-11.935 29.4-.179 3.279-3.779 8.646-6.658 9.909l-21.7 9.642c-2.491-5.651-7.164-18.458-7.385-28.19l22.7-11.809a3.5 3.5 0 0 0 1.878-2.9l.663-11.4a3.5 3.5 0 0 0 -4.587-3.528l-20.892 6.865c-.284-9.397 1.295-19.184 7.265-26.67zm-7.3 41.7c-.041-2.331-.056-4.881-.046-7.635l18.274-6.005-.25 4.285zm-4.358 22.72a120.317 120.317 0 0 0 7.1 19.357 3.494 3.494 0 0 0 4.571 1.674l22.891-10.174a37.305 37.305 0 0 1 -5.819 16.331 105.037 105.037 0 0 1 -12.354 3.537c-14.288 3.194-25.993 10.862-33.872 22.366l-7.073-15.958 20.877-9.28a3.5 3.5 0 1 0 -2.843-6.4l-20.871 9.276-7.366-16.622zm39.27 54.053c15.087 2.8 29.491-7.664 42.194-20.716a55.836 55.836 0 0 0 8.644 6.31 39.025 39.025 0 0 0 -.465 8.889c-16.214 13.608-43.483 24.376-62.827 14.779-4.085-2.106-7.326 3.93-3.3 6.17a36.771 36.771 0 0 0 4.763 2.118 201.219 201.219 0 0 0 .028 21.118c-1.1 2.816-6.905 15.139-25.362 20.426-.123-21.536 8.218-40.246 15.054-51.918a3.61 3.61 0 0 0 .368-2.645 3.776 3.776 0 0 0 -.6-1.236c-1.477-1.951-.707-5.662 1.616-7.786q2.329-2.131 4.521-4.474a27.655 27.655 0 0 0 15.366 8.965zm61.854 20.348c.247 4.342.593 21.211-7.538 35.447a58.447 58.447 0 0 0 -5.646 14.388c-23.033-3.8-44.918-19.159-52.659-32.1-.443-7.325-.243-14.835-.08-18.725 19.181 2.532 39.741-4.77 55.814-16.958a47.288 47.288 0 0 0 10.109 17.948zm8.656 79.547h-17.661a106.389 106.389 0 0 1 .182-12.643c.259-4.591-6.556-5.1-6.982-.513a113.325 113.325 0 0 0 -.21 13.156h-44.26c-4.48-9.467-5.827-25.694-5.554-38.256a3.5 3.5 0 0 0 -7-.152c-.133 6.093-.082 25.055 4.961 38.408h-18.829a80.44 80.44 0 0 1 -11.134-33.646c16.871-4.353 25.257-13.948 29.076-20.208 18.14 22.342 47.944 35.169 87.505 33.1a121.965 121.965 0 0 0 -10.094 20.754zm-48.545 21.768c.975-2.192.457-8.976.577-11.386a10.3 10.3 0 0 0 -.577-3.382h47.571v14.768zm-22.51 0a3.386 3.386 0 0 1 -3.382-3.383v-8a3.386 3.386 0 0 1 3.393-3.382h12.693a3.386 3.386 0 0 1 3.383 3.382v8a3.387 3.387 0 0 1 -3.383 3.383zm-9.805 0h-12.992v-14.768h12.992c-.975 2.191-.457 8.975-.577 11.385a10.309 10.309 0 0 0 .577 3.383zm-64.835-21.009c2.755-7.881 5.711-20.06 6.275-36.912-.056-1.322.7-1.615 1.7-1.566 1.053.077 2-.143 2.04.773a172.6 172.6 0 0 1 -.605 38.17 85.662 85.662 0 0 1 -9.41-.465zm-19.117-1.966c-5.426-8.419-16.26-28.4-23.26-62.2a12.489 12.489 0 0 0 4.84-1.635c1.751-1.011 16.176-9.6 17.625-10.254 3.575 9.024 11.385 27.582 19.216 38.621-.558 16.888-3.66 29.191-6.38 36.429-4.568-.76-7.794-2.273-12.041-.961zm5.99-94.866 1.956 4.526a5.41 5.41 0 0 1 -2.861 5.134c-3.726 2-8.217 4.423-11.794 6.361-5.272 2.895-9.97-1.3-12.276-5.853zm-31.517 12.829c1.928 3.557 4.632 7.4 8.332 9.359l-4.78 2.813c-6.343 3.335-9.375-4.549-11.373-9.351 2.521-.46 5.528-1.938 7.821-2.821zm55.535 38.767c-2.793-.328-4.3-.7-7.742.988-7-10.938-13.813-27.4-16.861-35.152 2.254-1.232 4.64-2.269 6.306-4.189l7.53 17.419a3.52 3.52 0 0 0 4.794 1.734l11.842-6a21.93 21.93 0 0 0 4.706 4.446 184.444 184.444 0 0 0 -10.571 20.754zm18.282-24.621c-8.6-2.643-12.658-13.5-8.65-21.429a47.277 47.277 0 0 1 8.284-12.078c7.171-7.95 18.073-12.628 29.18-14.8a76.445 76.445 0 0 1 -7.418 7.854c-3.854 3.524-6.016 9.881-3.719 15.063a122.758 122.758 0 0 0 -11.2 26.537 24.183 24.183 0 0 1 -6.473-1.147zm-45.4-92.689 30.341 68.459a22.965 22.965 0 0 0 -.747 17.527l-8.289 4.2-9.43-21.813c-.21-1.867-2.654-6.89-3.352-8.7-1.221-2.37-9.762-24.325-11.523-25.707l-11.831-27.371zm-48.2 57.356a6.525 6.525 0 0 1 3.623-6.84l28.169-13.843a6.614 6.614 0 0 1 7.44 1.125l9.29 21.489-9.974 4.061-3.484-11.373a3.5 3.5 0 1 0 -6.693 2.05l3.668 11.973-9.459 3.85-3.639-11.353a3.5 3.5 0 1 0 -6.666 2.136l3.8 11.865-3.085 1.255c-4.748 2-7.2.949-9.373-3.992a49.153 49.153 0 0 1 -3.617-12.403zm74.989 126.291c-.372.118-18.18 4.847-29.8-6.542-2.5-2.353-2.547-6.9.309-8.938a5.814 5.814 0 0 1 4.9-.938c6.67 1.625 23.014 4.726 39.148 1.049-.513 4.868-3.163 12.701-14.557 15.369zm16.346-23.079a57.487 57.487 0 0 1 -10.381 2.051c1.665-15.651 1.919-30.421-.02-40.563a172.022 172.022 0 0 1 11.317-22.476 30.734 30.734 0 0 0 6.118 1.152 88.169 88.169 0 0 0 3.365 50.115 84.521 84.521 0 0 1 -10.399 9.721zm5.115 54.363c4.511.42 16.76 1.468 33.715 2.19a51.749 51.749 0 0 0 -3.534 14.053h-34.668a68.975 68.975 0 0 1 4.487-16.243zm56.733-14.7a23.19 23.19 0 0 0 -19.248 10.037c-15.918-.61-28.1-1.541-34.239-2.072a61.72 61.72 0 0 1 14.273-17.64h79.586a98.24 98.24 0 0 1 12.855 19.214c-10.871.6-22.084.967-33.572 1.073a23.3 23.3 0 0 0 -19.655-10.613zm67.535 30.944c-.835-3.345-.379-10.741-5.659-9.758-4.611 1.366-1.616 6.551-1.42 9.758h-33.9a52.288 52.288 0 0 0 -3.256-13.383c19.332-.266 37.9-1.239 55.282-2.906a81.215 81.215 0 0 1 5.415 16.288zm7.535-22.993q-7.016.636-14.275 1.124a106.646 106.646 0 0 0 -11.4-18.75h9.054a52.434 52.434 0 0 1 16.621 17.625zm-3.957-74.454a134.485 134.485 0 0 1 -29.07-.516 50.943 50.943 0 0 1 4.78-12.052c6.428-11.253 8.142-23.677 8.488-31.808 3.149 2.977 6.883 5.682 11.282 6.254a155.272 155.272 0 0 1 11.206 16.37 67.2 67.2 0 0 1 -6.686 21.751zm27.429 36.476a2.776 2.776 0 0 1 -1.931-2.579 3.581 3.581 0 0 1 .809-3.148 2.788 2.788 0 0 1 2.156-.806 151.228 151.228 0 0 0 20.132-.04 60.919 60.919 0 0 0 .324 8.816c-5.597.209-13.943.004-21.49-2.244zm51.967.736c.261 8.167-4.417 21.789-14.334 15.343-5.553-4.351-9.59-10.622-9.467-17.98v-5.526a8.931 8.931 0 0 1 2.275-5.839c4.614-5.288 6.73-12.145 7.683-16.766 14.682 9.368 13.853 30.541 13.843 30.767zm-57.827-70.961a12.73 12.73 0 0 0 7.149 4.947c.925 2.86 1.816 5.693 2.633 8.42 3.685 11.053 14.768 9.54 24.84 7.383a139.013 139.013 0 0 1 3.1 14.244c-.189 1.942-1.349 11.24-6.692 17.363a16.469 16.469 0 0 0 -2.636 4.151 132.475 132.475 0 0 1 -18.128.349c-5.73-27.328-18.345-48.534-27.41-61h6.7c2.284-.139 2.834-1.289 3.9-3.434a58.543 58.543 0 0 1 6.544 7.576zm-33.809-71.2c6.254 3.4 17.446 7.632 35.251 8.522 11.526.576 19.94 5.531 25.01 14.726a4.541 4.541 0 0 1 .084 4.274 4.3 4.3 0 0 1 -3.275 2.385c-19.669 2.805-32.279 23.506-35.85 30.146h-10.785a10.484 10.484 0 0 1 -6.624-2.378c-6.984-5.727-12.1-11.664-15.213-17.645-7.965-15.318-1.836-29.428 4.709-38.567a5.188 5.188 0 0 1 6.693-1.465zm-13.207-1.431a55.076 55.076 0 0 0 -6.6 13.044 48.6 48.6 0 0 1 -5.821-4.47c1.578-1.919 3.072-3.869 4.462-5.824 2.6-3.789-2.97-7.765-5.7-4.056-14.8 20.533-40.767 40.79-56.31 21.493 7.638-9.469 13.851-21.046 13.219-33.678a24 24 0 0 0 4.1-6.235 116.642 116.642 0 0 0 15.86-3.629 67.709 67.709 0 0 0 9.074 24.445 3.5 3.5 0 1 0 5.952-3.684 60.978 60.978 0 0 1 -8.27-22.979c4.248-1.516 7.812-3.012 10.4-4.174 2.468 14.755 12.301 24.428 19.634 29.745z"></path><path d="m239.039 174.141c4.678-.08 4.677-7.039 0-7.118-4.679.077-4.678 7.038 0 7.118z"></path><path d="m160.04 63.9c4.678-.08 4.677-7.039 0-7.118-4.678.079-4.677 7.038 0 7.118z"></path></svg>