<svg xmlns="http://www.w3.org/2000/svg" id="line" viewBox="0 0 64 64"><path d="m15.25 61.99h3.85s.03 0 .04 0 .03 0 .04 0h5.84s.03 0 .04 0h.04 14.03s.02 0 .03 0h.06.23s.03 0 .04 0h.04 5.84s.03 0 .04 0 .03 0 .04 0h3.3c.55 0 1-.45 1-1s-.45-1-1-1h-2.62l-2.64-8.12c.77-.62 1.27-1.55 1.27-2.61v-.67c0-1.86-1.51-3.37-3.37-3.37h-.05l-2.38-7.32c1.1-.56 1.86-1.68 1.86-3v-.67c0-1.67-1.22-3.05-2.81-3.31l-1.76-14.72c-.01-.09-.04-.16-.07-.24.23-.31.41-.66.51-1.04l.87-3.1c.31-1.08.04-2.23-.7-3.07-.94-1.06-2.22-1.75-3.59-1.98v-3.77c.02-.55-.43-1-.98-1-.55 0-1 .45-1 1v3.77c-1.39.23-2.66.91-3.61 1.97-.76.85-1.02 2.01-.71 3.1l.9 3.1c.11.38.29.72.52 1.03-.03.07-.06.14-.07.23l-1.76 14.73c-1.54.31-2.7 1.68-2.7 3.3v.67c0 1.27.72 2.37 1.76 2.94l-2.41 7.38c-1.83.04-3.3 1.53-3.3 3.36v.67c0 1.01.46 1.91 1.17 2.53l-2.66 8.21h-3.17c-.55 0-1 .45-1 1s.45 1 1 1zm11.51-2c.94-2.15 3.08-3.63 5.52-3.63s4.58 1.47 5.52 3.63h-11.03zm1.07-4.27 1.01-3.09h6.89l1.01 3.09c-1.28-.86-2.82-1.35-4.45-1.35s-3.16.5-4.45 1.35zm16.21 4.27h-3.81l-2.4-7.36h3.57c.08 0 .16-.02.24-.02l2.4 7.39zm-4.79-14.78h-3.82l-2.19-6.72s-.03-.04-.04-.07c-.02-.06-.05-.11-.08-.16h3.87l2.26 6.94zm-5.93 0h-2.07l1.03-3.18 1.03 3.18zm-4.14-35.15c.78-.88 1.91-1.38 3.09-1.38 1.18 0 2.31.51 3.09 1.4.29.33.39.78.27 1.2l-.87 3.1c-.16.55-.67.94-1.24.94h-2.51c-.57 0-1.08-.38-1.23-.93l-.9-3.1c-.12-.43-.02-.88.29-1.22zm1.01 7.25h4.18l1.62 13.54h-7.41l1.62-13.54zm-4.33 16.91c0-.76.62-1.37 1.37-1.37h10.22c.76 0 1.37.61 1.37 1.37v.67c0 .63-.43 1.16-1.02 1.32-.14-.02-.29-.01-.43.04-.01 0-.02.01-.03.02h-10.08s-.04-.03-.07-.04c-.14-.05-.28-.06-.41-.04-.54-.19-.93-.69-.93-1.29v-.67zm1.73 4.05h3.87c-.03.05-.06.1-.08.16 0 .02-.03.04-.04.07l-2.18 6.72h-3.82l2.27-6.94zm-5.68 10.32c0-.76.62-1.37 1.37-1.37h.64s.01 0 .02 0h.02 5.89s.01 0 .02 0 .01 0 .02 0h4.78s.01 0 .02 0 .01 0 .02 0h5.89s.01 0 .02 0h.02.76c.76 0 1.37.61 1.37 1.37v.67c0 .45-.22.85-.56 1.1-.08 0-.17 0-.25.03-.14.05-.27.13-.37.23-.06 0-.13.02-.2.02h-18.11c-.09 0-.18 0-.27-.03-.11-.12-.24-.22-.41-.28-.07-.02-.13-.01-.2-.02-.3-.25-.49-.62-.49-1.04v-.67zm1.01 4.01c.12.01.24.04.36.04h3.45l-2.4 7.36h-3.82l2.4-7.4z"></path></svg>