<svg xmlns="http://www.w3.org/2000/svg" id="Capa_1" viewBox="0 0 512 512"><g><path d="m499.5 373.466h-23.678c-3.297 0-6.445-1.375-8.684-3.795l-13.309-14.376c10.832-17.441 19.285-36.2 25.155-55.833 1.187-3.969-1.068-8.147-5.037-9.334-3.969-1.191-8.148 1.067-9.334 5.037-5.139 17.188-12.397 33.662-21.615 49.081l-36.663-36.663c-8.263-8.261-21.705-8.263-29.97 0-12.575 12.575-12.575 33.037 0 45.611l2.887 2.888-56.411-15.116 21.942-21.941c3.879-3.881 6.015-9.039 6.015-14.525v-20.729c0-1.098.322-2.161.931-3.074l25.7-38.549c2.257-3.386 3.45-7.326 3.45-11.396v-13.09c0-11.345-9.197-20.542-20.542-20.542h-7.638c-2.386 0-4.504-1.527-5.258-3.79l-6.55-19.648c-4.322-12.969-16.412-21.683-30.083-21.683h-69.715c-.86 0-1.708-.2-2.478-.585l-18.92-9.461c-7.921-3.959-17.45-2.413-23.711 3.849l-34.655 34.655c-3.879 3.88-6.016 9.039-6.016 14.525v30.55c0 17.513 14.197 31.71 31.71 31.71h41.592c2.389 0 4.502 1.522 5.258 3.79l11.398 34.195c.189.566.285 1.158.285 1.754v25.845c0 2.208.356 4.403 1.054 6.498l9.523 28.57c1.114 3.343 2.956 6.436 5.554 8.817 4.019 3.684 9.031 5.506 14.026 5.506 1.966 0 3.929-.282 5.828-.844 2.988 4.64 7.64 8.229 13.378 9.766l11.137 2.984h-18.477c-11.978 0-22.362 8.939-23.449 20.867-1.244 13.652 9.517 25.162 22.917 25.162h19.102l-11.229 3.009c-8.141 2.181-14.096 8.493-16.215 16.077-15.016 1.549-30.393 1.549-45.408 0-2.119-7.585-8.074-13.896-16.215-16.077l-11.228-3.009h18.568c11.978 0 22.362-8.939 23.449-20.867 1.244-13.652-9.517-25.162-22.917-25.162h-19.01l10.624-2.847c11.569-3.1 19.285-14.421 17.248-26.224-2.332-13.509-15.703-21.843-28.649-18.375l-72.419 19.405 2.887-2.887c12.575-12.575 12.575-33.037 0-45.612-2.812-2.811-6.224-4.666-9.827-5.564-1.083-7.417-5.68-13.857-12.535-17.283l-10.541-5.271c-1.1-.55-1.991-1.441-2.541-2.541l-14.965-29.931c-3.916-7.833-11.922-12.781-20.68-12.781h-26.243s0 0-.001-.001c-.276-40.362 10.543-79.724 31.284-114.019h51.385c13.825 0 26.464-7.811 32.647-20.177l7.407-14.813c.952-1.903 2.524-3.476 4.427-4.428l23.688-11.844c6.51-3.255 11.256-9.171 13.021-16.232l8.228-32.912c14.913-3.177 30.234-4.785 45.612-4.785 26.503 0 52.257 4.67 76.717 13.897l-2.654 2.654c-1.328 1.328-3.129 2.074-5.006 2.074h-24.144c-3.427 0-6.808.798-9.873 2.331l-22.488 11.244c-7.48 3.74-12.205 11.385-12.205 19.748v21.923c0 14.877 9.52 28.084 23.633 32.788l26.204 8.734c5.595 1.864 11.58 1.438 16.856-1.198l22.822-11.411c1.691-.847 3.608-.982 5.403-.384l38.979 12.993c1.794.598 3.248 1.858 4.094 3.549l10.082 20.166c3.765 7.527 11.332 12.204 19.748 12.204 2.372 0 4.573 1.179 5.89 3.152l43.634 65.45c-.09 8.912-.721 17.858-1.881 26.626-.465 3.513 1.504 7.012 4.844 8.195.879.311 1.739.451 2.58.451 3.702 0 6.923-2.741 7.425-6.512 1.356-10.197 2.044-20.617 2.044-30.971 0-.006 0-.013 0-.019 0-.008 0-.016 0-.024-.017-92.555-54.849-176.29-139.691-213.325-.018-.008-.036-.015-.054-.023-29.377-12.812-60.653-19.31-92.96-19.31-18.062 0-36.056 2.079-53.483 6.178-16.536 3.889-32.677 9.625-47.977 17.049-3.157 1.532-4.971 5.068-4.144 8.478 1.177 4.85 6.375 7.116 10.595 5.065 10.587-5.144 21.604-9.422 32.884-12.776l-6.267 25.067c-.702 2.807-2.589 5.16-5.177 6.454l-23.687 11.843c-4.819 2.409-8.726 6.317-11.136 11.136l-7.407 14.814c-3.642 7.284-11.086 11.885-19.23 11.885h-41.453c14.342-19.852 31.793-37.011 52.024-51.132 2.67-1.863 4.017-5.218 3.037-8.322-1.631-5.163-7.475-6.871-11.511-4.055-25.738 17.943-47.274 40.487-64.007 67.006-.005.008-.01.016-.015.024-23.388 37.075-35.75 79.949-35.75 123.99 0 3.089.062 6.219.183 9.303 1.581 40.179 13.557 79.239 34.692 113.287l-13.308 14.375c-2.233 2.411-5.399 3.795-8.686 3.795h-23.677c-6.904 0-12.5 5.596-12.5 12.5v14.408c0 3.834 2.754 7.265 6.561 7.727 4.562.554 8.439-2.991 8.439-7.443v-12.192h21.177c7.453 0 14.63-3.137 19.693-8.605l15.818-17.085 44.584-44.584c2.407-2.407 6.321-2.426 8.733-.023 6.75 6.725 6.757 17.686.023 24.42l-19.284 19.284c-2.81 2.807-3.385 7.17-1.398 10.61 1.984 3.435 6.045 5.114 9.881 4.091l94.821-25.407c4.269-1.144 8.673 1.398 9.816 5.667 1.144 4.269-1.398 8.672-5.667 9.816l-66.163 17.729c-4.184 1.121-6.666 5.611-5.073 9.919 1.097 2.966 4.065 4.825 7.228 4.825h75.505c4.011 0 7.6 2.837 8.184 6.805.729 4.953-3.109 9.224-7.925 9.224h-75.856c-3.163 0-6.13 1.859-7.228 4.825-1.593 4.308.889 8.798 5.073 9.919l66.255 17.753c4.269 1.145 6.811 5.548 5.667 9.816-1.143 4.269-5.546 6.812-9.816 5.667l-52.321-14.019c-4.188-1.125-8.581 1.53-9.354 6.058-.532 3.115 1.108 6.206 3.845 7.786l33.059 19.086c3.827 2.21 5.143 7.121 2.934 10.948s-7.12 5.144-10.949 2.934l-26.812-15.48c-3.666-2.116-7.841-3.235-12.074-3.235h-48.027c-12.927 0-25.434-4.637-35.215-13.057-4.933-4.247-11.155-6.586-17.519-6.586h-21.615v-20.626c0-3.834-2.754-7.265-6.561-7.727-4.561-.553-8.439 2.992-8.439 7.444v23.41c0 6.904 5.596 12.5 12.5 12.5h24.114c2.774 0 5.521 1.049 7.733 2.954 12.502 10.762 28.484 16.688 45.001 16.688h48.028c1.606 0 3.183.423 4.574 1.226l26.812 15.48c3.616 2.088 7.566 3.079 11.469 3.079 7.959-.001 15.712-4.129 19.97-11.503 4.551-7.883 3.893-17.368-.898-24.442l5.864 1.57c11.265 3.024 22.859-2.902 27.211-13.398 7.824.787 15.746 1.186 23.622 1.186 7.875 0 15.796-.398 23.619-1.186 1.925 4.66 5.31 8.536 9.75 11.1 5.324 3.073 11.526 3.887 17.464 2.298l5.843-1.565c-2.112 3.117-3.459 6.776-3.872 10.748-.35 3.361.086 6.782 1.25 9.955 3.558 9.702 12.497 15.238 21.716 15.237 3.901 0 7.854-.991 11.468-3.078l26.811-15.479c1.39-.803 2.973-1.227 4.576-1.227h48.027c16.516 0 32.498-5.927 45.002-16.689 2.212-1.904 4.958-2.953 7.732-2.953h24.114c6.904 0 12.5-5.596 12.5-12.5v-74.103c0-6.904-5.596-12.501-12.5-12.501zm-151.847-338.289c68.386 31.764 114.992 96.358 124.326 170.131l-29.441-44.161c-4.104-6.156-10.973-9.832-18.371-9.832-2.698 0-5.124-1.499-6.331-3.912l-10.082-20.166c-2.638-5.274-7.172-9.206-12.766-11.071l-38.979-12.993c-2.295-.765-4.654-1.145-7.004-1.145-3.381 0-6.741.786-9.853 2.343l-22.822 11.411c-1.688.847-3.608.982-5.404.384l-26.203-8.734c-7.988-2.663-13.377-10.138-13.377-18.559v-21.922c0-2.681 1.515-5.133 3.913-6.332l22.488-11.244c.983-.491 2.066-.747 3.165-.747h24.145c5.896 0 11.44-2.296 15.612-6.467zm-241.987 272.407-36.661 36.661c-17.246-28.869-27.556-61.427-30.089-95.031h25.63c3.076 0 5.889 1.738 7.264 4.49l14.965 29.931c2.001 4.001 5.245 7.246 9.246 9.247l10.544 5.273c2.264 1.131 3.826 3.197 4.322 5.605-1.882.975-3.646 2.249-5.221 3.824zm172.979 45.369c-.338 1.262-.564 2.528-.683 3.788-1.875.841-3.532.402-4.37.054-.873-.361-2.44-1.279-3.136-3.367l-9.616-28.849c-.188-.565-.284-1.156-.284-1.752v-25.848c0-2.208-.356-4.401-1.054-6.496l-11.398-34.195c-2.801-8.401-10.632-14.046-19.488-14.046h-41.592c-9.229 0-16.71-7.481-16.71-16.71v-30.55c0-1.48.577-2.873 1.623-3.919l34.654-34.654c1.689-1.689 4.26-2.107 6.398-1.039l18.919 9.461c2.838 1.418 6.015 2.168 9.187 2.168h69.714c7.204 0 13.575 4.592 15.853 11.426l6.55 19.649c2.796 8.388 10.646 14.047 19.488 14.047h7.639c3.061 0 5.542 2.481 5.542 5.542v13.09c0 1.099-.321 2.162-.931 3.075l-25.701 38.551c-2.257 3.387-3.449 7.326-3.449 11.394v20.733c0 1.469-.583 2.877-1.622 3.916l-28.078 28.072c-12.027-2.806-24.236 4.445-27.455 16.459zm218.355 104.616h-21.614c-6.364 0-12.586 2.339-17.519 6.585-9.783 8.42-22.289 13.058-35.216 13.058h-48.027c-4.232 0-8.407 1.118-12.075 3.235l-26.812 15.48c-3.825 2.208-8.738.895-10.949-2.934-2.209-3.827-.893-8.738 2.935-10.948l33.029-19.069c2.809-1.622 4.463-4.827 3.835-8.01-.732-3.713-3.919-6.108-7.372-6.108-.643 0-1.296.083-1.943.257l-52.321 14.019c-2.068.553-4.227.269-6.082-.801-1.854-1.07-3.18-2.799-3.734-4.865-1.144-4.27 1.399-8.673 5.668-9.817l66.255-17.753c4.183-1.121 6.666-5.611 5.072-9.919-1.097-2.966-4.065-4.825-7.228-4.825h-75.597c-4.011 0-7.6-2.837-8.184-6.805-.729-4.953 3.109-9.224 7.925-9.224h75.763c3.163 0 6.13-1.859 7.227-4.825 1.593-4.308-.888-8.798-5.072-9.919l-66.162-17.729c-4.269-1.145-6.812-5.548-5.668-9.816 1.145-4.268 5.548-6.808 9.816-5.668l95.685 25.64c4.028 1.079 6.482 5.653 5.302 9.703-1.11 3.813-1.698 7.776-1.747 11.778-.191 15.408 7.921 30.029 21.17 38.156 1.224.751 2.577 1.108 3.915 1.108 2.821 0 5.568-1.592 6.857-4.444 1.565-3.462.112-7.553-3.112-9.563-8.662-5.402-13.957-14.989-13.832-25.072.033-2.646.42-5.26 1.151-7.771 2.328-7.999.057-16.688-5.93-22.674-1.823-1.823-22.637-22.638-25.438-25.438-6.658-6.658-6.726-17.449-.203-24.191.954-.986 2.18-1.715 3.535-1.935 2.035-.331 4.011.314 5.424 1.728l44.584 44.584 15.818 17.085c5.062 5.469 12.24 8.605 19.692 8.605h21.179z"></path></g><g></g><g></g><g></g><g></g><g></g><g></g><g></g><g></g><g></g><g></g><g></g><g></g><g></g><g></g><g></g></svg>