<svg xmlns="http://www.w3.org/2000/svg" height="512" viewBox="0 0 64 64" width="512"><g id="Earth_00000105397011707934972880000004267620525961166503_"><path d="m62.416 35.585c-1.343-1.342-3.019-2.158-4.77-2.434.228-1.367.354-2.755.354-4.151 0-13.785-11.215-25-25-25s-25 11.215-25 25c0 4.086 1.01 8.1 2.909 11.686l-1.306 1.828-7.664 4.79c-.937.585-1.221 1.819-.636 2.756.381.607 1.032.94 1.699.94.362 0 .729-.099 1.058-.305l8-5c.222-.139.415-.32.567-.533l1.707-2.389c1.687-2.362 4.429-3.773 7.332-3.773 1.785 0 3.513.523 4.998 1.513l.226.151c.328.219.715.336 1.11.336h5c2.206 0 4 1.794 4 4v1h-10c-1.104 0-2 .896-2 2s.896 2 2 2h10c1.799 0 3.306-1.201 3.808-2.838l12.777-9.228c1.316-.951 2.966-1.126 4.393-.572l-15.674 17.322c-.758.836-1.839 1.316-2.967 1.316h-17.337c-.433 0-.854.14-1.2.4l-4 3c-.883.663-1.062 1.917-.4 2.8.393.524.994.8 1.602.8.417 0 .839-.13 1.199-.4l3.466-2.6h16.671c2.256 0 4.418-.959 5.932-2.633l17.215-19.025c.715-.791.684-2.003-.069-2.757zm-21.707-26.1c-.041.035-.085.062-.123.101l-4 4c-.473.473-.678 1.15-.547 1.806l.737 3.687-4.886 3.257c-.556.371-.89.995-.89 1.664v5h-3.234l-.781-6.248c-.028-.225-.094-.443-.195-.646l-2.428-4.855 3.201-4.001c.487-.609.576-1.446.228-2.144l-1.072-2.143c1.983-.625 4.093-.963 6.281-.963 2.723 0 5.319.538 7.709 1.485zm-12.111 27.515c-2.079-1.31-4.468-2-6.932-2-2.848 0-5.575.958-7.803 2.631-1.217-2.7-1.863-5.641-1.863-8.631 0-7.972 4.466-14.919 11.026-18.475l.613 1.225-2.401 3.001c-.971 1.213-1.149 2.896-.455 4.288l2.275 4.549.739 5.908c.249 1.998 1.955 3.504 3.969 3.504h3.234c2.206 0 4-1.794 4-4v-3.93l3.996-2.663c1.354-.903 2.022-2.518 1.703-4.113l-.527-2.637 3.243-3.243c.356-.355.541-.812.573-1.277 5.46 3.371 9.275 9.153 9.912 15.863h-3.513c-2.879 0-5.431 1.727-6.5 4.4l-.24.6h-1.243c-2.138 0-4.13.958-5.466 2.627l-2.08 2.6c-.598-.143-1.218-.227-1.858-.227zm11.962 5.406c-.432-1.256-1.167-2.368-2.12-3.255l1.621-2.025c.572-.716 1.426-1.126 2.342-1.126h2.597c.818 0 1.553-.498 1.857-1.257l.743-1.857c.458-1.146 1.551-1.886 2.785-1.886h3.51c-.08.85-.212 1.692-.394 2.522-.788.273-1.551.657-2.259 1.169z"></path></g></svg>