<svg xmlns="http://www.w3.org/2000/svg" id="Capa_1" height="512" viewBox="0 0 512 512" width="512"><g><g><path d="m24.682 323.861 36.324-18.487c15.88-8.082 25.901-24.171 26.152-41.988l.083-5.909c.233-16.524 12.793-30.369 29.217-32.204l13.928-1.557c18.588-2.078 34.359-14.906 40.178-32.682l13.826-42.237c3.698-11.297 13.052-19.479 24.321-21.892l5.853 1.415c.593.143 1.185.212 1.769.212 2.297 0 4.432-1.081 5.837-2.838 23.311-3.201 41.33-23.236 41.33-47.412v-63.154c27.881.848 55.058 6.412 80.889 16.599 3.854 1.519 8.209-.372 9.729-4.226 1.52-3.853-.372-8.209-4.226-9.729-29.903-11.793-61.492-17.772-93.892-17.772-55.998 0-110.78 18.557-155.156 52.383 1.317-3.951 2.04-8.17 2.04-12.558 0-21.959-17.865-39.825-39.825-39.825s-39.825 17.866-39.825 39.825c0 5.512 1.127 10.766 3.161 15.545-15.084 3.373-26.395 16.858-26.395 32.944v28.285c0 13.047 10.615 23.663 23.663 23.663h3.947c-18.095 35.689-27.61 75.436-27.61 115.738 0 32.86 6.14 64.846 18.248 95.069 1.174 2.931 3.989 4.713 6.964 4.713.928 0 1.873-.174 2.787-.54 3.845-1.541 5.713-5.906 4.173-9.751-2.849-7.11-5.346-14.325-7.49-21.63zm38.377-308.861c13.688 0 24.825 11.137 24.825 24.825s-11.136 24.825-24.825 24.825-24.825-11.136-24.825-24.825 11.137-24.825 24.825-24.825zm-48.059 101.599v-28.285c0-10.347 8.417-18.764 18.764-18.764h2.829c7.041 6.276 16.313 10.1 26.466 10.1s19.424-3.824 26.466-10.1h2.829c10.347 0 18.764 8.417 18.764 18.764v28.285c0 4.776-3.886 8.663-8.663 8.663h-78.792c-4.777 0-8.663-3.887-8.663-8.663zm29.567 23.663h13.934l.662 1.276c1.334 2.574 3.952 4.049 6.665 4.049 1.163 0 2.342-.271 3.446-.843 1.869-.969 3.155-2.615 3.721-4.482h29.461c13.048 0 23.663-10.615 23.663-23.663v-10.493c2.682-.617 4.931-2.671 5.622-5.528.973-4.026-1.501-8.079-5.527-9.053l-.095-.023v-3.188c0-10.731-5.038-20.301-12.865-26.49 39.162-28.79 86.537-45.164 135.248-46.693v63.15c0 18.125-14.746 32.871-32.871 32.871-2.176 0-4.322.154-6.433.438l-3.635-.879c-3.568-.861-7.149.983-8.599 4.214-12.475 5.27-22.414 15.724-26.828 29.206l-13.826 42.236c-3.996 12.206-14.824 21.015-27.588 22.441l-13.928 1.557c-.954.107-1.895.251-2.83.412l-3.856-7.436c-1.906-3.677-6.435-5.114-10.11-3.206-3.677 1.907-5.113 6.433-3.206 10.11l2.829 5.456c-14.983 8.009-25.124 23.708-25.375 41.563l-.084 5.909c-.172 12.234-7.053 23.282-17.957 28.832l-33.355 16.976c-3.881-17.27-5.85-34.983-5.85-52.981 0-40.52 10.213-80.438 29.567-115.738z"></path><path d="m512 154.75c0-16.086-11.311-29.572-26.395-32.944 2.034-4.779 3.161-10.032 3.161-15.545 0-21.959-17.866-39.825-39.825-39.825-6.024 0-11.737 1.352-16.86 3.757-15.023-14.238-31.709-26.623-49.681-36.85-3.601-2.05-8.179-.792-10.228 2.809-2.048 3.6-.791 8.179 2.809 10.228 16.127 9.177 31.158 20.196 44.781 32.817-6.6 7.11-10.646 16.622-10.646 27.065 0 1.189.062 2.364.165 3.527l-23.921 4.233c-23.405 4.135-43.752 18.252-55.825 38.729l-12.821 21.731c-12.748 21.631-14.824 47.449-5.696 70.834l2.112 5.406c4.29 10.972 11.357 20.583 20.264 28.018l-6.482 4.993c-3.282 2.527-3.893 7.237-1.365 10.518 1.477 1.918 3.7 2.924 5.947 2.924 1.598 0 3.208-.508 4.571-1.559l10.246-7.892c.111-.085.21-.179.315-.269 3.731 1.889 7.638 3.46 11.695 4.648 1.758.513 3.449 1.265 5.048 2.25 1.544.943 2.97 2.11 4.24 3.469l13.7 14.66c5.247 5.607 12.011 9.313 19.574 10.717 4.623.852 8.859 3.292 11.924 6.864 3.062 3.579 4.823 8.142 4.96 12.849l.061 2.081c.156 5.358-1.745 10.502-5.351 14.48l-26.68 29.407c-2.467 2.709-4.498 5.781-6.043 9.144l-13.679 29.934c-4.081 8.94-4.281 19.277-.552 28.354l4.831 11.789c-34.482 18.596-73.618 28.899-114.354 28.899-43.157 0-85.494-11.54-122.434-33.371-35.876-21.202-65.824-51.498-86.605-87.61-2.066-3.591-6.653-4.825-10.241-2.76-3.59 2.066-4.826 6.651-2.76 10.241 22.07 38.352 53.874 70.526 91.975 93.042 39.25 23.197 84.226 35.458 130.065 35.458 101.128 0 193-59.733 234.055-152.176 1.681-3.786-.025-8.217-3.811-9.898-3.782-1.681-8.217.024-9.898 3.811-19.981 44.992-52.749 81.751-92.896 106.767l-4.051-9.887c-2.162-5.261-2.045-11.25.319-16.428l13.671-29.916c.895-1.946 2.072-3.728 3.508-5.305l26.691-29.419c6.224-6.867 9.503-15.744 9.233-24.994l-.061-2.08c-.235-8.12-3.274-15.991-8.562-22.172-5.297-6.175-12.612-10.386-20.587-11.855-4.381-.813-8.305-2.962-11.345-6.212l-13.697-14.657c-2.195-2.349-4.677-4.376-7.354-6.012-2.72-1.676-5.645-2.977-8.687-3.864-16.082-4.708-29.326-16.837-35.427-32.443l-2.11-5.402c-7.443-19.068-5.75-40.122 4.645-57.759l12.82-21.73c.196-.332.411-.649.612-.977l9.31 2.251c.593.143 1.185.212 1.769.212 3.383 0 6.454-2.306 7.284-5.739.973-4.026-1.501-8.079-5.527-9.053l-2.503-.605c9.4-9.122 21.389-15.338 34.571-17.667l13.317-2.357c-9.263 6.027-15.406 16.464-15.406 28.315v.376c-2.685.615-4.931 2.684-5.622 5.543-.973 4.026 1.502 8.079 5.528 9.052l.094.023v13.29c0 13.047 10.615 23.663 23.663 23.663h28.206c.151.252.313.499.496.737 1.478 1.918 3.7 2.923 5.947 2.923 1.598 0 3.208-.509 4.572-1.559l2.728-2.102h36.844c1.204 0 2.388-.092 3.544-.266 3.388 16.192 5.117 32.826 5.117 49.571 0 22.382-3.063 44.528-9.105 65.823-1.13 3.985 1.183 8.132 5.168 9.263.685.194 1.374.287 2.051.287 3.269 0 6.275-2.154 7.211-5.455 6.42-22.627 9.675-46.151 9.675-69.918 0-19.234-2.137-38.338-6.348-56.861 3.934-4.227 6.348-9.888 6.348-16.104zm-38.234-48.49c0 13.688-11.137 24.825-24.825 24.825s-24.825-11.137-24.825-24.825 11.137-24.825 24.825-24.825 24.825 11.137 24.825 24.825zm-64.221 85.437c-4.776 0-8.663-3.886-8.663-8.663v-28.284c0-10.347 8.417-18.764 18.764-18.764h2.829c7.041 6.276 16.313 10.1 26.466 10.1s19.424-3.824 26.466-10.1h2.829c10.347 0 18.764 8.417 18.764 18.764v28.285c0 4.776-3.886 8.663-8.663 8.663h-78.792z"></path><path d="m105.663 390.882c0 13.047 10.615 23.663 23.663 23.663h45.003c.343.685.698 1.365 1.077 2.032l14.939 26.262c7.688 13.524 22.127 21.926 37.684 21.926h23.314c4.298 0 8.608-1.023 12.473-2.962l21.553-10.847c7.675-3.857 13.048-10.902 14.743-19.327 1.695-8.43-.54-17.009-6.133-23.54l-9.159-10.686c-1.978-2.301-3.067-5.246-3.067-8.293v-34.941c0-9.679-4.915-18.5-13.145-23.598l-21.612-13.397c-1.783-1.104-3.279-2.648-4.321-4.457-1.053-1.836-1.643-3.916-1.706-6.015-.25-8.47-4.277-16.252-11.046-21.352-6.772-5.101-15.367-6.823-23.589-4.723l-7.468 1.917c-1.436.367-2.823.844-4.16 1.422-6.981-6.026-16.06-9.683-25.984-9.683-7.844 0-15.159 2.289-21.331 6.22-2.245-1.8-5.426-2.222-8.146-.812-3.677 1.906-5.113 6.433-3.206 10.11l.477.919c-4.786 6.572-7.619 14.653-7.619 23.387 0 5.512 1.127 10.766 3.161 15.545-15.084 3.372-26.395 16.858-26.395 32.944v28.286zm104.392-95.725c3.777-.965 7.729-.172 10.843 2.173 3.112 2.344 4.963 5.921 5.078 9.814.135 4.559 1.411 9.066 3.695 13.046 2.282 3.963 5.544 7.33 9.427 9.733l15.431 9.566-2.751 2.119c-3.281 2.528-3.892 7.237-1.364 10.519 1.478 1.918 3.7 2.923 5.947 2.923 1.598 0 3.208-.509 4.572-1.559l4.988-3.843c.535 1.419.832 2.942.832 4.519v34.941c0 6.634 2.376 13.052 6.685 18.063l9.15 10.675c2.57 3.001 3.598 6.947 2.818 10.824-.779 3.872-3.248 7.109-6.777 8.883l-21.548 10.845c-1.78.893-3.764 1.365-5.738 1.365h-23.314c-10.173 0-19.616-5.494-24.645-14.341l-11.877-20.879h16.611c13.048 0 23.663-10.615 23.663-23.663v-14.935l1.83-1.41c3.282-2.527 3.893-7.237 1.365-10.518-.865-1.123-1.988-1.925-3.22-2.404-.45-15.65-11.594-28.659-26.37-31.963 2.034-4.779 3.161-10.032 3.161-15.545 0-6.283-1.468-12.228-4.071-17.518zm-16.508 18.951c0 13.688-11.137 24.825-24.825 24.825s-24.825-11.137-24.825-24.825 11.137-24.825 24.825-24.825 24.825 11.136 24.825 24.825zm-72.884 48.489c0-10.347 8.417-18.764 18.764-18.764h2.829c7.041 6.276 16.313 10.1 26.466 10.1s19.424-3.824 26.466-10.1h2.829c10.347 0 18.764 8.417 18.764 18.764v28.285c0 4.776-3.886 8.663-8.663 8.663h-78.792c-4.776 0-8.663-3.886-8.663-8.663z"></path><path d="m127.704 264.921c1.163 0 2.343-.271 3.446-.843 3.677-1.907 5.113-6.433 3.206-10.11l-5.625-10.849c-1.906-3.678-6.435-5.113-10.11-3.206-3.677 1.907-5.113 6.433-3.206 10.11l5.625 10.849c1.334 2.574 3.952 4.049 6.664 4.049z"></path><path d="m79.788 181.316c1.334 2.574 3.953 4.049 6.665 4.049 1.163 0 2.343-.271 3.446-.843 3.677-1.907 5.113-6.433 3.206-10.11l-5.625-10.849c-1.906-3.678-6.435-5.113-10.11-3.206-3.677 1.907-5.113 6.433-3.206 10.11z"></path><path d="m374.723 246.9-10.246 7.893c-3.281 2.528-3.892 7.237-1.364 10.519 1.478 1.917 3.7 2.923 5.947 2.923 1.598 0 3.208-.509 4.572-1.559l10.246-7.893c3.281-2.528 3.892-7.237 1.364-10.519-2.529-3.281-7.237-3.891-10.519-1.364z"></path><path d="m310.108 306.142c-2.527-3.281-7.238-3.893-10.519-1.364l-10.245 7.892c-3.281 2.528-3.892 7.237-1.364 10.519 1.477 1.917 3.7 2.923 5.947 2.923 1.598 0 3.208-.509 4.572-1.559l10.245-7.892c3.281-2.528 3.892-7.237 1.364-10.519z"></path><path d="m412.29 217.962-10.246 7.893c-3.281 2.528-3.892 7.237-1.364 10.519 1.478 1.917 3.7 2.923 5.947 2.923 1.598 0 3.208-.509 4.572-1.559l10.246-7.893c3.281-2.528 3.892-7.237 1.364-10.519-2.529-3.281-7.238-3.892-10.519-1.364z"></path><path d="m308.208 150.748c3.383 0 6.454-2.306 7.284-5.739.973-4.026-1.501-8.079-5.527-9.053l-12.529-3.029c-4.032-.975-8.08 1.501-9.053 5.527s1.501 8.079 5.527 9.053l12.529 3.029c.594.143 1.186.212 1.769.212z"></path><path d="m247.973 136.398 12.528 3.03c.593.143 1.186.212 1.769.212 3.383 0 6.454-2.305 7.284-5.739.974-4.026-1.501-8.08-5.527-9.053l-12.528-3.03c-4.03-.975-8.08 1.501-9.053 5.527-.974 4.027 1.501 8.08 5.527 9.053z"></path><path d="m156.097 114.184 12.529 3.029c.593.143 1.185.212 1.769.212 3.383 0 6.454-2.306 7.284-5.739.973-4.026-1.501-8.079-5.527-9.053l-12.529-3.029c-4.03-.974-8.08 1.501-9.053 5.527-.974 4.026 1.501 8.079 5.527 9.053z"></path></g></g></svg>