<svg xmlns="http://www.w3.org/2000/svg" id="Capa_1" height="512" viewBox="0 0 512 512" width="512"><g><path d="m490.54 5.679c-1.61-3.673-5.377-5.944-9.382-5.655-27.278 1.99-122.88 11.589-207.817 51.512-3.541 1.665-6.448 4.357-8.405 7.784l-29.846 52.244c-.016-6.215.255-13.484 1.079-21.473.382-3.707-1.364-7.201-4.556-9.119-3.182-1.912-7.075-1.813-10.156.256-35.437 23.792-72.702 50.235-105.142 82.354-2.893 2.864-2.916 7.531-.052 10.424 2.865 2.893 7.532 2.915 10.424.052 28.852-28.566 61.898-52.701 93.966-74.499-.738 14.068.033 25.168.656 31.169.427 4.112 3.432 7.448 7.479 8.302 4.051.853 8.155-.988 10.209-4.584l38.74-67.813c.445-.78 1.095-1.387 1.877-1.755 70.98-33.363 149.849-44.977 187.572-48.822l-24.467 22.96c-2.968 2.786-3.117 7.45-.331 10.419 2.786 2.968 7.45 3.116 10.419.331l35.534-33.346c2.927-2.747 3.811-7.063 2.199-10.741z"></path><path d="m330.185 262.741c9.021-15.027 16.419-31.091 21.986-47.747l12.599-37.693c12.827-38.378 34.46-74.054 62.56-103.17 2.827-2.929 2.744-7.595-.185-10.422-2.931-2.828-7.596-2.744-10.422.185-29.616 30.687-52.416 68.287-65.935 108.734l-12.599 37.693c-5.227 15.639-12.173 30.723-20.642 44.831-.133.222-.376.391-.667.463l-113.766 28.305c-4.195 1.045-7.09 4.65-7.203 8.972-.113 4.315 2.585 8.06 6.713 9.321 11.525 3.518 34.306 9.138 65.536 10.499-29.179 24.296-63.948 40.878-101.319 48.215l-80.653 15.836c6.943-14.455 14.361-28.603 22.251-42.428h35.381c4.071 0 7.371-3.3 7.371-7.371s-3.3-7.371-7.371-7.371h-26.725c17.691-29.236 37.543-56.953 59.461-83.018 22.592-26.794 47.192-52.015 73.383-75.303h37.979c4.071 0 7.371-3.3 7.371-7.371s-3.3-7.371-7.371-7.371h-20.904c22.702-19.002 46.527-36.662 71.356-52.825 3.411-2.221 4.377-6.787 2.156-10.199-2.22-3.411-6.787-4.376-10.199-2.156-55.706 36.271-106.551 79.851-150.874 129.405v-22.082c0-4.071-3.3-7.371-7.371-7.371s-7.371 3.3-7.371 7.371v39.078c-37.283 44.453-68.682 93.594-93.79 146.756-7.905-12.448-20.891-39.04-16.738-74.777l19.68 16.956c3.077 2.65 7.611 2.729 10.783.187 3.164-2.536 4.072-6.969 2.159-10.541-7.227-13.494-11.202-36.147-11.496-65.509-.006-.602.131-1.169.398-1.642 7.731-13.678 17.255-27.321 28.308-40.549 2.61-3.124 2.193-7.772-.93-10.382-3.122-2.61-7.771-2.193-10.382.93-11.624 13.912-21.661 28.295-29.828 42.747-1.541 2.725-2.338 5.852-2.306 9.044.192 19.204 1.855 35.611 4.964 49.08l-8.887-7.657c-2.557-2.202-6.125-2.88-9.314-1.772-3.194 1.111-5.575 3.865-6.214 7.185-10.681 55.472 15.457 93.118 22.693 102.253-12.556 27.356-31.891 83.132-42.695 112.015-1.401 3.822.562 8.056 4.384 9.457 2.899 1.209 5.662-.173 8.181-1.516l59.873-34.485c23.104-13.307 51.418-12.663 73.893 1.681l26.981 17.22c18.111 11.559 40.332 14.754 60.967 8.769l43.766-12.697c11.357-3.294 23.664-2.706 34.655 1.657 3.783 1.501 8.068-.348 9.57-4.131s-.347-8.068-4.131-9.57c-14.019-5.565-29.717-6.316-44.201-2.114l-43.766 12.697c-16.561 4.805-34.394 2.24-48.928-7.038l-26.981-17.22c-27.124-17.311-61.297-18.089-89.181-2.029l-44.327 25.531c.92-2.486 20.057-54.801 20.251-55.159h109.095c11.185.119 12.313-16.73 1.371-18.461-10.344-3.289-20.114-6.395-34.644-22.893-2.798-3.176-5.809-5.967-9.012-8.384l40.751-8.002c44.413-8.721 85.377-29.7 118.464-60.67 2.865-2.681 3.787-6.772 2.348-10.423-1.439-3.653-4.906-6.018-8.833-6.025-22.253-.038-40.689-2.437-54.463-5.155l93.242-23.198c4.058-1.006 7.611-3.623 9.744-7.176zm-224.643 125.494c8.179 2.026 15.358 6.496 21.338 13.285 6.817 7.741 12.935 13.054 18.535 16.87h-77.562c3.4-8.46 6.954-16.827 10.661-25.098.485.139 26.615-5.681 27.028-5.057z"></path><path d="m477.814 497.244h-92.78c-6.264 0-12.4-1.153-18.236-3.425-3.794-1.477-8.067.4-9.543 4.194-1.477 3.793.401 8.066 4.194 9.543 7.549 2.94 15.484 4.43 23.585 4.43h92.78c4.071 0 7.371-3.3 7.371-7.371s-3.3-7.371-7.371-7.371z"></path></g></svg>