<svg xmlns="http://www.w3.org/2000/svg" id="File_management" height="512" viewBox="0 0 64 64" width="512" data-name="File management"><path d="m61 6h-11.87l-3.4-3.68a.99.99 0 0 0 -.73-.32h-30a1 1 0 0 0 -1 1v14.75a17 17 0 0 0 0 32.5v6.75a1 1 0 0 0 1 1h9v3a1 1 0 0 0 1 1h36a1 1 0 0 0 1-1v-54a1 1 0 0 0 -1-1zm-15-.44 8.72 9.44h-8.72zm-42 28.44a15 15 0 1 1 15 15 15.018 15.018 0 0 1 -15-15zm12 22v-5.28a17.432 17.432 0 0 0 3 .28 16.861 16.861 0 0 0 7.94-1.98l6.99 6.98zm10 4v-2h9.93l2.01 2zm17.62-1.38a3.043 3.043 0 0 1 -4.23 0l-10.69-10.68a17.082 17.082 0 0 0 4.24-4.24l10.68 10.69a2.958 2.958 0 0 1 0 4.23zm-9.6-16.68a16.982 16.982 0 0 0 -15.02-24.94 17.432 17.432 0 0 0 -3 .28v-13.28h28v12a1 1 0 0 0 1 1h11v39h-9.54a4.994 4.994 0 0 0 -1.42-3.03zm25.98 18.06h-14.93a4.919 4.919 0 0 0 1.18-2h10.75a1 1 0 0 0 1-1v-41a.977.977 0 0 0 -.27-.68l-6.75-7.32h9.02z"></path><path d="m20 7h6v2h-6z"></path><path d="m29 7h12v2h-12z"></path><path d="m20 12h21v2h-21z"></path><path d="m36 20h18v2h-18z"></path><path d="m36 25h18v2h-18z"></path><path d="m38 30h16v2h-16z"></path><path d="m38 35h4v2h-4z"></path><path d="m44 35h10v2h-10z"></path><path d="m32 34a13 13 0 1 0 -13 13 13.015 13.015 0 0 0 13-13zm-24 0a11 11 0 1 1 11 11 11.013 11.013 0 0 1 -11-11z"></path></svg>