<svg xmlns="http://www.w3.org/2000/svg" xmlns:xlink="http://www.w3.org/1999/xlink" id="Capa_1" x="0px" y="0px" viewBox="0 0 426.895 426.895" style="enable-background:new 0 0 426.895 426.895;" xml:space="preserve"><path id="XMLID_1078_" d="M66.704,92.179c0-3.866,3.134-7,7-7h1.974c3.866,0,7,3.134,7,7s-3.134,7-7,7h-1.974 C69.838,99.179,66.704,96.045,66.704,92.179z M228.034,14h1.972c3.866,0,7-3.134,7-7s-3.134-7-7-7h-1.972c-3.866,0-7,3.134-7,7 S224.168,14,228.034,14z M49.474,202.13l-1.396,1.396c-2.734,2.732-2.736,7.165-0.003,9.899c1.367,1.368,3.159,2.052,4.951,2.052 c1.791,0,3.581-0.683,4.948-2.049l1.396-1.396c2.734-2.732,2.736-7.165,0.003-9.899S52.209,199.397,49.474,202.13z M104.198,250.685 c-2.734-2.732-7.166-2.732-9.9,0c-2.733,2.734-2.733,7.166,0,9.9l1.395,1.395c1.367,1.366,3.159,2.05,4.95,2.05 s3.583-0.684,4.95-2.05c2.733-2.734,2.733-7.166,0-9.9L104.198,250.685z M310.527,62.938h1.974c3.866,0,7-3.134,7-7s-3.134-7-7-7 h-1.974c-3.866,0-7,3.134-7,7S306.661,62.938,310.527,62.938z M183.938,78.727c2.732,2.732,7.165,2.732,9.899,0l9.34-9.34 l9.339,9.34c1.367,1.366,3.159,2.05,4.95,2.05s3.583-0.684,4.95-2.05c2.733-2.734,2.733-7.166,0-9.9l-9.34-9.339l9.338-9.338 c2.733-2.734,2.733-7.166,0-9.9c-2.734-2.732-7.166-2.732-9.9,0l-9.338,9.338l-9.337-9.338c-2.734-2.732-7.166-2.732-9.9,0 c-2.733,2.734-2.733,7.166,0,9.9l9.338,9.338l-9.339,9.339C181.204,71.561,181.204,75.992,183.938,78.727z M221.139,244.921v160.816 c0,11.666-9.49,21.157-21.156,21.157c-11.667,0-21.158-9.491-21.158-21.157V244.921c0-11.666,9.49-21.157,21.156-21.157 C211.647,223.764,221.139,233.255,221.139,244.921z M207.139,244.921c0-3.946-3.21-7.157-7.156-7.157 c-3.88,0-7.158,3.277-7.158,7.157v160.816c0,3.946,3.21,7.157,7.156,7.157c3.947,0,7.158-3.211,7.158-7.157V244.921z  M320.243,168.375c2.733-2.733,2.733-7.165-0.001-9.899l-9.34-9.339l9.338-9.338c2.734-2.734,2.734-7.166,0.001-9.899 c-2.733-2.732-7.166-2.733-9.899-0.001l-9.339,9.339l-9.339-9.339c-2.732-2.732-7.165-2.733-9.899,0.001 c-2.733,2.733-2.733,7.165,0.001,9.899l9.338,9.338l-9.34,9.339c-2.734,2.734-2.734,7.166-0.001,9.899 c2.734,2.733,7.167,2.734,9.899,0.001l9.341-9.341l9.341,9.341c1.366,1.366,3.158,2.05,4.949,2.05S318.876,169.742,320.243,168.375z  M317.278,217.153l-1.396,1.396c-2.734,2.732-2.736,7.164-0.003,9.899c1.367,1.368,3.159,2.052,4.951,2.052 c1.791,0,3.581-0.683,4.948-2.049l1.396-1.396c2.734-2.732,2.736-7.165,0.003-9.899 C324.446,214.421,320.014,214.421,317.278,217.153z M99.813,149.137l9.339-9.338c2.733-2.734,2.733-7.166,0-9.9 c-2.734-2.732-7.166-2.732-9.9,0l-9.338,9.339l-9.337-9.338c-2.733-2.732-7.166-2.733-9.899-0.001 c-2.734,2.734-2.734,7.166-0.001,9.899l9.338,9.339l-9.34,9.339c-2.733,2.734-2.733,7.166,0,9.9c2.734,2.732,7.166,2.732,9.9,0 l9.339-9.34l9.339,9.339c1.367,1.367,3.158,2.051,4.95,2.051c1.791,0,3.583-0.684,4.949-2.05c2.734-2.734,2.734-7.166,0.001-9.899 L99.813,149.137z M378.817,147.257l-1.396-1.395c-2.734-2.733-7.167-2.73-9.899,0.003c-2.733,2.734-2.731,7.167,0.003,9.899 l1.396,1.395c1.367,1.366,3.157,2.049,4.948,2.049c1.792,0,3.585-0.685,4.951-2.052 C381.554,154.421,381.552,149.989,378.817,147.257z M273.254,95.257l-33.728,63.812l33.728,63.813 c1.436,2.715,0.933,6.049-1.238,8.221c-2.172,2.171-5.508,2.673-8.221,1.238l-63.814-33.728l-63.812,33.728 c-1.033,0.546-2.155,0.812-3.27,0.812c-1.814,0-3.605-0.704-4.952-2.05c-2.171-2.172-2.674-5.506-1.238-8.221l33.727-63.813 l-33.727-63.812c-1.436-2.716-0.933-6.05,1.238-8.222c2.172-2.172,5.506-2.674,8.222-1.238l63.812,33.728l63.814-33.728 c2.713-1.436,6.047-0.934,8.221,1.238C274.187,89.207,274.689,92.541,273.254,95.257z M250.271,108.779l-47.021,24.852 c-2.045,1.082-4.495,1.082-6.542,0l-47.018-24.852l24.851,47.018c1.082,2.047,1.082,4.496,0,6.543l-24.851,47.019l47.018-24.852 c1.023-0.541,2.147-0.812,3.271-0.812s2.248,0.271,3.271,0.812l47.021,24.852L225.42,162.34c-1.082-2.047-1.082-4.496,0-6.543 L250.271,108.779z M133.887,33.95l1.395-1.396c2.733-2.733,2.733-7.165,0-9.899c-2.734-2.732-7.166-2.732-9.9,0l-1.395,1.395 c-2.733,2.734-2.733,7.166,0,9.9c1.367,1.366,3.159,2.05,4.95,2.05S132.52,35.316,133.887,33.95z"></path><g></g><g></g><g></g><g></g><g></g><g></g><g></g><g></g><g></g><g></g><g></g><g></g><g></g><g></g><g></g></svg>