<svg xmlns="http://www.w3.org/2000/svg" id="Outline" height="512" viewBox="0 0 512 512" width="512"><path d="m484.887 16.631c-10.006 4.228-43.215 18.571-50.531 25.7l-55.441 55.195c-8.783-.832-17.86 2.106-24.571 8.817-5.785 5.785-8.972 13.476-8.972 21.657 0 .994.049 1.98.142 2.957l-46.528 46.576c-8.805-.855-17.913 2.081-24.642 8.81-5.785 5.785-8.972 13.476-8.972 21.657 0 1.02.05 2.032.148 3.034l-38.467 38.507c-8.826-.877-17.962 2.056-24.709 8.802-5.785 5.785-8.972 13.476-8.972 21.657 0 1.043.053 2.077.156 3.101l-49.531 49.582-2.34-2.34c-1.448-1.447-3.448-2.343-5.657-2.343-4.418 0-8 3.582-8 8 0 2.209.895 4.209 2.343 5.657l1.852 1.852-95.126 80.491h-13.069c-4.418 0-8 3.582-8 8v56c0 4.418 3.582 8 8 8h56c4.418 0 8-3.582 8-8v-13.069l80.491-95.126 1.852 1.852c1.448 1.448 3.448 2.343 5.657 2.343 4.418 0 8-3.582 8-8 0-2.209-.895-4.209-2.343-5.657l-2.34-2.34 49.599-49.548c1.025.103 2.054.157 3.084.157 7.843 0 15.686-2.985 21.656-8.956 5.785-5.785 8.972-13.476 8.972-21.657 0-1.032-.051-2.056-.152-3.07l38.506-38.467c1.003.098 2.01.15 3.017.15 7.843 0 15.686-2.985 21.656-8.956 5.785-5.785 8.972-13.476 8.972-21.657 0-1.009-.049-2.01-.145-3.002l46.574-46.526c.979.094 1.961.141 2.943.141 7.843 0 15.686-2.985 21.656-8.956 5.785-5.785 8.972-13.476 8.972-21.657 0-.984-.049-1.96-.14-2.928l55.241-55.489c7.068-7.255 21.412-40.464 25.64-50.469 1.268-3 .59-6.468-1.712-8.771s-5.77-2.978-8.769-1.711zm-412.887 463.369h-40v-40h4.687l35.313 35.313zm7.509-19.805-27.704-27.704 91.743-77.629 13.59 13.59zm88.494-103.506-12.692-12.692 44.795-44.841c.697.866 1.44 1.704 2.238 2.501h-.001l8.001 8c.801.801 1.638 1.543 2.501 2.237zm74.341-58.346c-5.705 5.703-14.985 5.703-20.687 0l-8-8s0 0-.001 0c-2.763-2.763-4.284-6.436-4.284-10.343s1.521-7.58 4.284-10.343c2.853-2.852 6.598-4.277 10.344-4.277 3.745 0 7.492 1.426 10.343 4.277l8.001 8c2.763 2.763 4.284 6.436 4.284 10.343s-1.522 7.58-4.284 10.343zm13.57-29.474c-.703-.875-1.452-1.721-2.257-2.526l-8.001-8c-.808-.808-1.654-1.557-2.526-2.256l28.943-28.973c.707.881 1.46 1.733 2.271 2.543h-.001l8.001 8c.814.814 1.665 1.566 2.543 2.269zm58.43-42.526c-5.705 5.703-14.985 5.703-20.687 0l-8-8s0 0-.001 0c-2.763-2.763-4.284-6.436-4.284-10.343s1.521-7.58 4.284-10.343c2.853-2.852 6.598-4.277 10.344-4.277 3.745 0 7.492 1.426 10.343 4.277l8.001 8c2.763 2.763 4.284 6.436 4.284 10.343s-1.522 7.58-4.284 10.343zm13.603-29.432c-.712-.89-1.472-1.75-2.29-2.568l-8.001-8c-.821-.821-1.681-1.58-2.568-2.289l36.949-36.987c.717.898 1.483 1.765 2.307 2.59h-.001l8.001 8c.828.828 1.695 1.592 2.59 2.305zm66.397-50.568c-5.705 5.703-14.985 5.703-20.687 0l-8-8s0 0-.001 0c-2.763-2.763-4.284-6.436-4.284-10.343s1.521-7.58 4.284-10.343c2.853-2.852 6.598-4.277 10.344-4.277 3.745 0 7.492 1.426 10.343 4.277l8.001 8c2.763 2.763 4.284 6.436 4.284 10.343s-1.522 7.58-4.284 10.343zm63.987-79.987-50.361 50.585c-.719-.901-1.486-1.771-2.313-2.597l-8.001-8c-.83-.83-1.7-1.597-2.598-2.311l50.524-50.301c2.376-2.315 13.722-8.081 26.771-14.083-5.997 13.043-11.749 24.372-14.022 26.707zm-314.331 197.644c0 4.418 3.582 8 8 8s8-3.582 8-8c0-13.233 10.767-24 24-24 4.418 0 8-3.582 8-8s-3.582-8-8-8c-13.233 0-24-10.767-24-24 0-4.418-3.582-8-8-8s-8 3.582-8 8c0 13.233-10.767 24-24 24-4.418 0-8 3.582-8 8s3.582 8 8 8c13.233 0 24 10.767 24 24zm8-40.025c2.282 3.039 4.986 5.743 8.025 8.025-3.039 2.282-5.743 4.986-8.025 8.025-2.282-3.039-4.986-5.743-8.025-8.025 3.039-2.282 5.743-4.986 8.025-8.025zm224 64.025c0 4.418-3.582 8-8 8h-8v16c0 4.418-3.582 8-8 8s-8-3.582-8-8v-16h-8c-4.418 0-8-3.582-8-8s3.582-8 8-8h8v-8c0-4.418 3.582-8 8-8s8 3.582 8 8v8h8c4.418 0 8 3.582 8 8zm-80-192v8h8c4.418 0 8 3.582 8 8s-3.582 8-8 8h-8v16c0 4.418-3.582 8-8 8s-8-3.582-8-8v-16h-8c-4.418 0-8-3.582-8-8s3.582-8 8-8h8v-8c0-4.418 3.582-8 8-8s8 3.582 8 8z"></path></svg>