<svg xmlns="http://www.w3.org/2000/svg" id="Capa_1" height="512" viewBox="0 0 512.015 512.015" width="512"><g><path d="m269.431 276.945c.965-1.013 2.266-1.855 3.866-2.503l36.211-14.666c7.665-3.104 11.539-11.654 8.819-19.465l-3.734-10.723 92.22-96.768c2.857-2.999 2.743-7.746-.256-10.604-2.999-2.857-7.744-2.745-10.604.255l-93.274 97.875c-3.248 3.41-4.303 8.29-2.754 12.734l4.236 12.164c.088.252-.037.528-.284.628l-36.211 14.666c-3.592 1.455-6.653 3.495-9.091 6.056l-45.967 48.137-17.523-17.523 52.432-50.266c2.99-2.867 3.09-7.614.224-10.604-2.865-2.989-7.614-3.09-10.604-.224l-54.24 51.999c-3.511-.694-8.49-.188-12.74 3.725l-12.6 12.6-.291-.291c-2.93-2.929-7.678-2.929-10.607 0s-2.929 7.678 0 10.606l.292.292-112.71 112.708-13.315 3.917c-3.732 1.097-7.16 3.132-9.914 5.884l-5.726 5.726c-3.409 3.409-5.286 7.942-5.286 12.763s1.877 9.354 5.286 12.763l35.81 35.809c3.52 3.519 8.142 5.278 12.764 5.278s9.244-1.759 12.764-5.278l5.726-5.726c2.752-2.752 4.786-6.18 5.884-9.911l3.918-13.319 112.707-112.706.292.292c1.465 1.464 3.385 2.197 5.304 2.197s3.839-.732 5.304-2.197c2.929-2.929 2.929-7.678 0-10.606l-.292-.292 12.6-12.6c2.711-4.055 4.76-5.521 3.692-12.875zm-104.506 94.727c-.875-2.417-2.29-5.457-5.797-8.963-4.235-4.236-7.794-5.422-10.392-6.288-2.324-.634-6.113-3.067-7.192-7.192-.491-1.471-1.085-3.252-2.277-5.288l18.288-18.288 26.694 26.694zm-29.841 29.84c-.875-2.417-2.291-5.456-5.796-8.962-4.236-4.236-7.795-5.422-10.393-6.289-2.324-.635-6.113-3.066-7.192-7.192-.491-1.471-1.085-3.252-2.277-5.288l18.38-18.38c.875 2.417 2.29 5.456 5.795 8.961 4.236 4.236 7.794 5.422 10.393 6.288 2.323.636 6.114 3.066 7.193 7.194.491 1.471 1.085 3.252 2.277 5.288zm-29.841 29.841c-.875-2.417-2.291-5.456-5.796-8.962-4.236-4.236-7.795-5.422-10.393-6.289-2.322-.635-6.113-3.066-7.192-7.192-.491-1.471-1.085-3.251-2.277-5.288l18.38-18.38c.875 2.417 2.29 5.456 5.796 8.962 4.235 4.236 7.794 5.421 10.392 6.288 2.322.635 6.114 3.067 7.193 7.193.491 1.472 1.085 3.252 2.277 5.288zm-29.749 29.749-26.694-26.694 19.325-19.325c.875 2.417 2.29 5.456 5.795 8.961 4.236 4.236 7.795 5.422 10.393 6.289 2.322.635 6.114 3.067 7.193 7.193.491 1.472 1.085 3.252 2.277 5.288zm-11.652 23.644c-.392 1.332-1.118 2.555-2.101 3.538l-5.726 5.726c-1.188 1.189-3.125 1.189-4.312 0l-35.809-35.81c-1.189-1.189-1.189-3.125 0-4.314l5.725-5.725c.982-.983 2.206-1.709 3.539-2.101l10.88-3.2 31.005 31.004zm131.015-143.006-26.694-26.694 11.774-11.773 26.693 26.694z"></path><path d="m506.684 7.436c-3.679-3.679-8.755-5.598-13.96-5.282-5.192.322-10.004 2.862-13.2 6.968l-19.776 25.412c-2.482 3.19-5.477 5.9-8.899 8.054l-30.091 18.943c-2.832 1.783-5.493 3.86-7.91 6.176l-65.994 63.238-4.168-2.53c-3.771-2.29-8.277-2.653-12.366-1.001-4.088 1.652-7.077 5.046-8.198 9.311l-5.79 22.011c-.335 1.275-.924 2.343-1.71 3.095l-52.237 50.079c-2.99 2.867-3.09 7.614-.224 10.604 1.473 1.536 3.442 2.31 5.415 2.31 1.866 0 3.735-.692 5.189-2.086l52.23-50.073c2.783-2.662 4.804-6.16 5.843-10.116l5.394-20.505 4.077 2.475c5.069 3.076 11.597 2.358 15.878-1.742l67.039-64.241c1.688-1.616 3.545-3.067 5.522-4.312l30.092-18.943c4.901-3.085 9.189-6.966 12.746-11.536l19.775-25.412c.761-.977 1.763-1.177 2.293-1.21.528-.03 1.548.042 2.424.917 1.091 1.09 1.233 2.795.341 4.053l-20.889 29.409c-2.328 3.278-5.183 6.103-8.483 8.397l-29.828 20.738c-2.745 1.908-5.306 4.102-7.61 6.52l-9.487 9.956c-2.857 2.999-2.743 7.746.256 10.604 2.998 2.856 7.745 2.744 10.604-.256l9.487-9.956c1.608-1.688 3.396-3.219 5.312-4.551l29.829-20.738c4.727-3.286 8.814-7.333 12.149-12.027l20.888-29.407c5.146-7.245 4.32-17.063-1.963-23.346z"></path><path d="m288.141 58.783 6.15 3.444c4.82 2.699 8.795 6.674 11.494 11.494l3.443 6.149c1.775 3.171 5.137 5.142 8.771 5.142s6.996-1.97 8.771-5.142l3.443-6.149c2.699-4.82 6.674-8.795 11.495-11.494l6.149-3.444c3.171-1.776 5.141-5.137 5.141-8.771s-1.97-6.995-5.141-8.771l-6.15-3.444c-4.82-2.699-8.795-6.674-11.494-11.494l-3.443-6.149c-1.775-3.171-5.137-5.142-8.771-5.142s-6.996 1.97-8.771 5.142l-3.443 6.149c-2.699 4.82-6.674 8.795-11.495 11.494l-6.149 3.444c-3.171 1.775-5.141 5.136-5.141 8.77s1.97 6.995 5.141 8.772zm29.859-23.662c3.715 6.075 8.815 11.175 14.891 14.89-6.075 3.714-11.176 8.815-14.891 14.89-3.715-6.075-8.815-11.175-14.891-14.89 6.076-3.714 11.176-8.815 14.891-14.89z"></path><path d="m341.003 364.632-7.826-4.382c-6.464-3.62-11.795-8.951-15.415-15.415l-4.384-7.828c-1.899-3.39-5.492-5.496-9.378-5.496s-7.479 2.106-9.379 5.497l-4.383 7.826c-3.62 6.465-8.951 11.795-15.414 15.415l-7.828 4.383c-3.391 1.899-5.496 5.493-5.496 9.378s2.105 7.479 5.496 9.378h.001l7.826 4.382c6.464 3.62 11.795 8.951 15.415 15.415l4.384 7.828c1.899 3.39 5.492 5.496 9.378 5.496s7.479-2.106 9.379-5.497l4.383-7.826c3.62-6.465 8.951-11.795 15.414-15.415l7.828-4.383c3.391-1.899 5.496-5.493 5.496-9.378s-2.105-7.478-5.497-9.378zm-15.156 10.053c-8.878 4.972-16.199 12.293-21.173 21.173l-.674 1.204-.674-1.204c-4.974-8.879-12.295-16.201-21.174-21.173l-1.203-.674 1.204-.674c8.878-4.972 16.199-12.293 21.173-21.173l.674-1.204.674 1.204c4.974 8.879 12.295 16.201 21.174 21.173l1.203.674z"></path><path d="m427.141 192.783 6.15 3.444c4.82 2.699 8.795 6.674 11.494 11.494l3.443 6.149c1.775 3.171 5.137 5.142 8.771 5.142s6.996-1.97 8.771-5.142l3.443-6.149c2.699-4.82 6.674-8.795 11.495-11.494l6.149-3.444c3.171-1.776 5.141-5.137 5.141-8.771s-1.97-6.995-5.141-8.771l-6.15-3.444c-4.82-2.699-8.795-6.674-11.494-11.494l-3.443-6.149c-1.775-3.171-5.137-5.142-8.771-5.142s-6.996 1.97-8.771 5.142l-3.443 6.149c-2.699 4.82-6.674 8.795-11.495 11.494l-6.149 3.444c-3.171 1.776-5.141 5.137-5.141 8.771s1.97 6.994 5.141 8.771zm29.859-23.662c3.715 6.075 8.815 11.175 14.891 14.89-6.075 3.714-11.176 8.815-14.891 14.89-3.715-6.075-8.815-11.175-14.891-14.89 6.076-3.714 11.176-8.815 14.891-14.89z"></path><path d="m49.141 105.783 6.15 3.444c4.82 2.699 8.795 6.674 11.494 11.494l3.443 6.149c1.775 3.171 5.137 5.142 8.771 5.142s6.996-1.97 8.771-5.142l3.443-6.149c2.699-4.82 6.674-8.795 11.495-11.494l6.149-3.444c3.171-1.776 5.141-5.137 5.141-8.771s-1.97-6.995-5.141-8.771l-6.15-3.444c-4.82-2.699-8.795-6.674-11.494-11.494l-3.443-6.149c-1.775-3.171-5.137-5.142-8.771-5.142s-6.996 1.97-8.771 5.142l-3.443 6.149c-2.699 4.82-6.674 8.795-11.495 11.494l-6.149 3.444c-3.171 1.775-5.141 5.136-5.141 8.77s1.97 6.995 5.141 8.772zm29.859-23.662c3.715 6.075 8.815 11.175 14.891 14.89-6.075 3.714-11.176 8.815-14.891 14.89-3.715-6.075-8.815-11.175-14.891-14.89 6.076-3.714 11.176-8.815 14.891-14.89z"></path><path d="m490.275 322.295-9.533-5.338c-8.139-4.558-14.849-11.269-19.406-19.406l-5.339-9.533c-2.023-3.615-5.854-5.86-9.997-5.86s-7.974 2.246-9.997 5.859l-5.339 9.533c-4.558 8.138-11.268 14.848-19.406 19.406l-9.532 5.339c-3.614 2.023-5.86 5.854-5.86 9.996 0 4.143 2.245 7.974 5.859 9.998l9.533 5.339c8.139 4.557 14.849 11.268 19.406 19.405l5.339 9.533c2.023 3.615 5.854 5.86 9.997 5.86s7.974-2.246 9.997-5.859l5.339-9.534c4.558-8.138 11.268-14.848 19.406-19.405l9.533-5.339c3.614-2.024 5.859-5.855 5.859-9.998.001-4.142-2.245-7.973-5.859-9.996zm-16.863 12.245c-10.553 5.91-19.254 14.611-25.164 25.164l-2.248 4.015-2.248-4.015c-5.91-10.553-14.611-19.254-25.164-25.164l-4.016-2.249 4.016-2.249c10.553-5.91 19.254-14.611 25.164-25.164l2.248-4.015 2.248 4.015c5.91 10.552 14.611 19.253 25.164 25.164l4.016 2.249z"></path><path d="m153.362 139.714 9.619 5.387c8.221 4.604 15 11.383 19.604 19.604l5.388 9.62c2.03 3.625 5.873 5.876 10.027 5.876s7.997-2.251 10.028-5.877l5.387-9.619c4.604-8.221 11.383-15 19.604-19.604l9.618-5.387c3.625-2.03 5.877-5.873 5.877-10.027 0-4.155-2.252-7.998-5.878-10.028l-9.618-5.386c-8.221-4.604-15-11.383-19.604-19.604l-5.388-9.62c-2.03-3.625-5.873-5.877-10.027-5.877s-7.997 2.252-10.028 5.878l-5.387 9.619c-4.604 8.221-11.383 15-19.604 19.604l-9.618 5.387c-3.625 2.03-5.877 5.873-5.877 10.028 0 4.154 2.252 7.996 5.877 10.026zm16.948-12.354c10.637-5.957 19.407-14.727 25.363-25.363l2.327-4.155 2.327 4.156c5.956 10.636 14.727 19.406 25.362 25.363l4.155 2.327-4.154 2.327c-10.637 5.957-19.407 14.727-25.363 25.363l-2.327 4.154-2.327-4.156c-5.956-10.636-14.727-19.406-25.362-25.362l-4.155-2.327z"></path></g></svg>