<svg xmlns="http://www.w3.org/2000/svg" id="Layer_1" height="512" viewBox="0 0 512 512" width="512" data-name="Layer 1"><path d="m71.987 31.768a5.993 5.993 0 0 0 7.354-4.233l2.686-9.975a6 6 0 0 0 -11.587-3.12l-2.686 9.974a6 6 0 0 0 4.233 7.354z"></path><path d="m69.9 39.51a6 6 0 0 0 -7.354 4.233l-2.687 9.974a6 6 0 1 0 11.587 3.121l2.687-9.974a6 6 0 0 0 -4.233-7.354z"></path><path d="m74.8 36.681a6 6 0 0 0 4.228 7.357l9.961 2.691a6 6 0 1 0 3.129-11.585l-9.958-2.691a6 6 0 0 0 -7.36 4.228z"></path><path d="m49.768 36.135 9.961 2.69a6 6 0 0 0 3.128-11.585l-9.957-2.69a6 6 0 0 0 -3.129 11.585z"></path><path d="m325.41 358a6 6 0 0 0 -7.364 4.216l-2.481 9.134a6 6 0 1 0 11.58 3.146l2.482-9.133a6 6 0 0 0 -4.217-7.363z"></path><path d="m318.12 384.83a6 6 0 0 0 -7.363 4.217l-2.481 9.134a6 6 0 1 0 11.58 3.146l2.481-9.134a6 6 0 0 0 -4.217-7.363z"></path><path d="m326.313 389.953 9.2 2.464a6 6 0 0 0 3.1-11.592l-9.2-2.464a6 6 0 1 0 -3.1 11.592z"></path><path d="m311.589 373.587-9.2-2.463a6 6 0 1 0 -3.1 11.592l9.2 2.463a6 6 0 0 0 3.1-11.592z"></path><path d="m482.979 227.779a6.3 6.3 0 0 0 -3.543-11.962c-28.125 4.133-37.634-14.432-42.206-23.357a6.8 6.8 0 0 0 -8.222-3.284 6.726 6.726 0 0 0 -4.555 7.136c1.243 11.157.136 31.466-21.236 42.133a6.3 6.3 0 0 0 3.525 11.9c23.726-2.713 35.592 13.594 40.548 23.555a6.7 6.7 0 0 0 6.019 3.733 6.939 6.939 0 0 0 1.7-.212 6.729 6.729 0 0 0 5.108-7.219c-.99-9.91-3.044-30.535 22.862-42.423zm-34.817 26.352a48.261 48.261 0 0 0 -25.506-14.984 48.7 48.7 0 0 0 13.268-26.633 44.052 44.052 0 0 0 25.808 15.037 44.107 44.107 0 0 0 -13.57 26.58z"></path><path d="m25.169 289.278a25.372 25.372 0 0 1 16.247.285c-7.288 54.66 10.786 94.854 16.422 105.761a848.183 848.183 0 0 0 -36.63 84.586 13.309 13.309 0 0 0 24.815 9.617c3.392-8.28 16.344-38.919 38.21-79.443a133.17 133.17 0 0 0 27.681 2.676c22.254 0 54.491-4.6 92.249-23.727a6.652 6.652 0 0 0 -2.968-12.584c-2.843-.014-7.621-1.87-12.889-5.389 28.047-3.59 87.437-18.407 123.066-79.327a7.471 7.471 0 0 0 -9.272-10.689c-3.5 1.342-22.332 3.491-38.29 1.363 29.294-7.137 85.814-23.426 115.262-72.714a6.542 6.542 0 0 0 -6.715-9.8c-7.885 1.352-18.374 2.277-26.15 1.318 10.045-18.427 32.109-44.856 58.844-70.374a33.411 33.411 0 0 1 4.323 12.073 6.52 6.52 0 0 0 6.126 5.49c.12.006.239.01.358.01a6.6 6.6 0 0 0 6.438-5.22c2.2-10.7 6.576-20.911 23.536-23.084h.012a6.217 6.217 0 0 0 .171-12.309 31.45 31.45 0 0 1 -10.726-3.524c22.32-17.84 41.408-29.039 51.784-30.261a8.8 8.8 0 0 0 2.341-16.844c-105.978-44.522-184.814-5.499-213.148 12.783a51.386 51.386 0 0 1 4.064-10.923 7.3 7.3 0 0 0 -7.811-10.517c-55.241 10.151-97.036 33.162-124.224 68.4-22.4 29.022-29.427 58.78-33.628 76.561-.183.774-.37 1.564-.558 2.351-.539-4.845-.582-12.119.618-22.3a8.037 8.037 0 0 0 -13.993-6.274c-23.393 26.357-40.314 54.543-50.377 83.871a36.627 36.627 0 0 1 -9.648-9.481 6.588 6.588 0 0 0 -8.394-1.8 6.521 6.521 0 0 0 -3.171 7.56c2.134 7.4 3.75 21.248-9.4 30.9a6.216 6.216 0 0 0 5.425 10.98zm9.749 195.7a1.285 1.285 0 0 1 -.613.664 1.213 1.213 0 0 1 -1.467-.187 1.19 1.19 0 0 1 -.361-1.42c20.969-57.262 97.861-241.935 241.223-322.729-145.265 103.01-229.243 300.388-238.782 323.673zm381.011-359.322a36.162 36.162 0 0 0 -11.229-12.32 36.384 36.384 0 0 0 11.622-12.065 33.637 33.637 0 0 0 11.381 12.4 33.616 33.616 0 0 0 -11.774 11.985zm-349.1 169.222c-2.906-10.538-3.648-21.623 10.47-31.289a6.216 6.216 0 0 0 -5.448-11.039 32.727 32.727 0 0 1 -9.9 1.772c8.4-24.171 21.747-47.583 39.839-69.8-.687 17.734 2.854 27.7 10.723 30.336a7.342 7.342 0 0 0 5.968-.541c4.128-2.3 5.3-7.243 7.859-18.084 7.838-33.172 25.94-109.784 139.755-134.2a65.6 65.6 0 0 0 -3.332 17.231 7.47 7.47 0 0 0 11.964 6.367c14.589-11.047 91.327-62.677 201.059-20.978-15.91 5.9-35.455 20.175-48.908 30.983a38.837 38.837 0 0 1 -3.655-11.75 6.574 6.574 0 0 0 -12.919-.12c-1.462 7.557-6.316 20.624-22.407 23.223a6.217 6.217 0 0 0 -.17 12.246 27.648 27.648 0 0 1 8.76 3.193c-25.192 24.11-53.9 56.375-64.212 79.9a6.539 6.539 0 0 0 3.655 8.739c7.484 2.854 17.816 2.886 26.33 2.193-30.393 40.72-81.661 52.859-107.232 58.915-4.786 1.133-8.565 2.028-11.229 2.9a7.415 7.415 0 0 0 -1.133 13.62c14.272 7.49 38.429 7.3 52.912 5.614-16.646 24.588-39.531 42.809-68.153 54.235a163.5 163.5 0 0 1 -52.5 11.632 6.765 6.765 0 0 0 -4.581 11.52 69.859 69.859 0 0 0 16.262 12.357c-45.724 19.925-81.511 17.375-96.292 14.931 42.928-77.22 115.521-183.81 213.841-243.333a10.361 10.361 0 0 0 -9.6-18.318c-110.181 49.476-185.375 158.967-229.763 244.318a177.677 177.677 0 0 1 -12.192-84.319 37.23 37.23 0 0 1 2.6 3.171 6.485 6.485 0 0 0 5.252 2.68 6.6 6.6 0 0 0 6.38-8.305zm-24.367-34.615a33.563 33.563 0 0 0 15.764 5.85 33.622 33.622 0 0 0 -5.036 16.048 36.1 36.1 0 0 0 -15.59-5.852 36.435 36.435 0 0 0 4.862-16.046z"></path></svg>