<svg xmlns="http://www.w3.org/2000/svg" id="Capa_1" height="512" viewBox="0 0 512 512" width="512"><g><path d="m490.738 398.067-63.103-19.374-6.737-40.425c-1.71-10.265-7.904-17.804-16.156-20.336l-35.392-161.828 31.512 10.141c14.101 4.537 25.187 3.451 31.221-3.057 2.756-2.97 6.691-9.638 2.1-20.917l-28.878-70.931-52.621-55.262c-7.571-7.951-16.957-16.078-29.182-16.078h-105.004c-13.797 0-19.087 12.77-21.929 19.629l-22.497 54.305 13.858 5.741 22.497-54.305c3.252-7.85 5.213-10.37 8.07-10.37h105.004c5.217 0 10.695 3.416 18.318 11.422l50.662 53.205 27.807 68.299c1.253 3.078 1.07 4.765.795 5.062-.605.652-5.03 2.388-15.627-1.022l-40.619-13.072-37.291-90.015-13.857 5.741 38.363 92.604 37.13 169.777h-65.682v-22.5h-135v22.5h-65.683l37.131-169.777 22.241-53.688-13.858-5.741-22.752 54.921-38.32 175.216c-8.253 2.531-14.447 10.071-16.157 20.335l-6.737 40.425-63.103 19.374c-5.259 1.616-21.262 6.529-21.262 22.965 0 22.432 19.194 38.663 60.405 51.079 56.84 17.124 138.957 39.89 195.595 39.89 19.047 0 42.791-2.664 70.574-7.917l-2.787-14.739c-26.866 5.08-49.673 7.656-67.787 7.656-15.082 0-60.978 0-191.268-39.252-49.732-14.984-49.732-31.342-49.732-36.717 0-2.707.823-5.603 10.664-8.625l66.462-20.405h96.374v22.5h135v-22.5h96.374l66.462 20.405c9.841 3.021 10.664 5.917 10.664 8.625 0 5.23-.002 20.861-45.826 35.504l-22.614-19.45-24.979 33.301c-23.607 6.498-45.38 11.859-64.747 15.945l3.096 14.677c20.343-4.291 43.262-9.958 68.118-16.846l2.463-.682 18.427-24.565 16.721 14.381 3.937-1.186c41.21-12.416 60.404-28.647 60.404-51.079 0-16.437-16.003-21.35-21.262-22.964zm-390.884-21.066 6.044-36.268c.671-4.028 3.065-8.732 7.602-8.732h75v45zm208.646 22.5h-105v-90h105zm15-22.5v-45h75.001c4.537 0 6.93 4.704 7.601 8.732l6.045 36.268z"></path><path d="m293.5 324.501h-75v60h75zm-15 45h-45v-30h45z"></path><path d="m291.533 70.527h14.999v15h-14.999z" transform="matrix(.924 -.383 .383 .924 -7.098 120.372)"></path><path d="m303.014 98.243h15v15h-15z" transform="matrix(.924 -.383 .383 .924 -16.828 126.9)"></path><path d="m97.5 112.5h15c0-24.813 20.187-45 45-45v-15c-24.813 0-45-20.187-45-45h-15c0 24.813-20.187 45-45 45v15c24.812 0 45 20.187 45 45zm7.5-75.973c5.467 9.848 13.625 18.006 23.473 23.473-9.848 5.467-18.006 13.625-23.473 23.473-5.467-9.848-13.626-18.006-23.474-23.473 9.848-5.467 18.007-13.625 23.474-23.473z"></path></g></svg>