<svg xmlns="http://www.w3.org/2000/svg" id="Capa_1" viewBox="0 0 512 512"><g><path d="m159.277 245.461c.521.109 1.039.162 1.55.162 3.472 0 6.589-2.426 7.332-5.959l4.431-21.072c4.597-21.889 16.414-42.031 33.276-56.715 7.928-6.904 18.085-10.715 28.596-10.718 4.142 0 7.5-3.357 7.5-7.5s-3.358-7.5-7.5-7.5c-10.1 0-19.948 2.624-28.64 7.502-2.035-16.083 8.209-31.661 24.214-35.863 9.706-2.548 19.939-3.12 29.979-3.082h10.688c4.143 0 7.5-3.357 7.5-7.5s-3.357-7.5-7.5-7.5h-10.688c-3.804 0-7.617.143-11.422.416 10.806-10.373 22.564-19.719 35.132-27.908 3.47-2.262 4.45-6.908 2.189-10.379-2.262-3.469-6.908-4.451-10.379-2.189-19.002 12.382-36.267 27.249-51.346 44.213-24.949 7.65-39.174 34.666-31.592 59.793-17.488 16.497-29.74 38.288-34.687 61.846l-4.43 21.07c-.852 4.053 1.743 8.03 5.797 8.883z"></path><path d="m505.08 73.189c-4.396-3.903-10.271-5.748-16.114-5.045l-10.397 1.249c-12.545 1.505-25.046-.906-36.142-6.964l-73.333-40.072c-8.766-4.787-19.356-5.874-28.975-2.937-11.18 3.432-22.211 7.67-32.792 12.598-2.704 1.133-4.603 3.806-4.603 6.922 0 4.143 3.363 7.5 7.506 7.5 1.097 0 2.181-.24 3.175-.705 10.035-4.688 20.504-8.718 31.106-11.972 5.777-1.765 12.133-1.112 17.392 1.758l73.333 40.072c13.854 7.562 29.456 10.568 45.118 8.693l10.395-1.249c2.179-.261 3.672.745 4.373 1.368s1.878 1.996 1.878 4.185c0 .915-.217 1.791-.637 2.588-.429.809-1.048 1.505-1.794 2.016-9.757 6.688-20.427 11.85-31.716 15.342-5.039 1.56-10.187 2.783-15.299 3.637-4.085.682-6.845 4.547-6.162 8.633.663 4.107 4.641 6.858 8.633 6.162 5.773-.964 11.582-2.344 17.262-4.102 12.729-3.938 24.762-9.759 35.762-17.298 2.738-1.876 5.01-4.424 6.577-7.383 1.553-2.948 2.374-6.265 2.374-9.595 0-5.883-2.523-11.498-6.92-15.401z"></path><path d="m500.048 419.328c-23.402-33.987-60.352-56.079-101.374-60.612l-17.119-1.892v-22.56c0-9.039-7.261-16.401-16.255-16.595l-29.266-146.647c13.834-9.59 22.233-25.21 22.51-42.212h55.247c4.143 0 7.5-3.357 7.5-7.5s-3.357-7.5-7.5-7.5h-57.677c-3.962-9.293-9.878-16.147-17.783-20.757-3.52-2.181-8.144-1.094-10.324 2.43-2.181 3.521-1.093 8.145 2.43 10.324 6.131 3.498 10.24 8.789 13.012 16.874l.094 4.465c.234 11.239-4.517 21.741-12.737 28.94-4.008-6.987-9.88-12.834-16.896-16.95-3.522-2.18-8.145-1.094-10.325 2.427-2.182 3.521-1.095 8.145 2.427 10.325 6.757 3.866 11.964 10.055 14.394 17.466l29.596 148.297h-48.007v-1.098c0-7.455-6.064-13.52-13.52-13.52h-71.081c-7.455 0-13.52 6.064-13.52 13.52v1.098h-52.11l9.186-43.708c.852-4.054-1.744-8.03-5.797-8.883-4.051-.848-8.03 1.743-8.882 5.797l-9.975 47.464c-6.911 2.012-11.981 8.392-11.981 15.943v22.555l-15.593 1.723c-41.989 4.641-79.813 27.256-103.774 62.05l-3.624 5.263c-1.58 2.294-1.758 5.276-.461 7.742 1.296 2.466 3.853 4.011 6.639 4.011 48.877 0 77.046 7.881 100.184 16.41 20.832 8.644 26.818 14.656 35.475 35.555 1.161 2.803 3.896 4.63 6.929 4.63s5.768-1.827 6.929-4.63c2.394-5.78 4.585-10.417 6.94-14.29 26.559 8.105 54.848 11.886 88.973 11.886 2.454 0 4.867-.021 7.23-.062 4.141-.071 7.44-3.487 7.369-7.629-.071-4.097-3.414-7.37-7.496-7.37-2.326.037-4.69.062-7.103.061-30.059 0-54.382-2.878-77.673-9.24 4.445-3.173 9.973-5.905 17.373-8.97 2.802-1.16 4.63-3.896 4.63-6.929s-1.827-5.769-4.63-6.929c-20.946-8.677-26.938-14.668-35.613-35.614-1.161-2.803-3.896-4.63-6.929-4.63s-5.768 1.827-6.929 4.63c-8.295 20.027-14.146 26.384-32.949 34.487-20.645-7.427-47.238-14.73-88.325-16.128 21.565-27.653 53.403-45.519 88.483-49.395l21.863-2.416h241.366l23.429 2.589c34.641 3.827 66.034 21.653 87.049 49.218-53.537 1.794-82.828 13.623-111.227 25.091-22.905 9.25-44.54 17.987-78.764 22.007-4.114.483-7.057 4.21-6.574 8.324.465 4.13 4.287 7.073 8.324 6.574 36.224-4.255 59.815-13.782 82.631-22.996 30.858-12.463 60.006-24.233 119.904-24.233 2.787 0 5.344-1.545 6.64-4.013 1.296-2.467 1.117-5.449-.464-7.743zm-349.96 5.395c5.742 10.045 12.263 16.566 22.308 22.309-10.045 5.741-16.566 12.263-22.308 22.308-5.742-10.045-12.263-16.566-22.308-22.308 10.045-5.742 16.566-12.264 22.308-22.309zm214.852-92.072c.89 0 1.614.724 1.614 1.613v21.772h-64.561v-23.386h62.947zm-77.946-14.617v38.003h-68.12v-11.501h28.526c4.142 0 7.5-3.357 7.5-7.5s-3.358-7.5-7.5-7.5h-28.525v-11.502zm-83.12 38.003h-64.561v-21.772c0-.89.724-1.613 1.614-1.613h62.946v23.385z"></path><path d="m52.75 302.603c14.949 6.192 19.225 10.468 25.417 25.418 1.161 2.803 3.896 4.63 6.929 4.63s5.768-1.827 6.929-4.63c6.192-14.95 10.468-19.226 25.417-25.418 2.803-1.16 4.63-3.896 4.63-6.929s-1.827-5.769-4.63-6.929c-14.949-6.192-19.225-10.468-25.417-25.417-1.161-2.803-3.896-4.63-6.929-4.63-3.034 0-5.768 1.827-6.929 4.63-6.192 14.949-10.468 19.225-25.417 25.417-2.803 1.16-4.63 3.896-4.63 6.929s1.827 5.769 4.63 6.929zm32.346-19.839c3.505 5.388 7.522 9.405 12.91 12.91-5.388 3.505-9.405 7.522-12.91 12.91-3.504-5.388-7.522-9.405-12.91-12.91 5.388-3.505 9.405-7.522 12.91-12.91z"></path><path d="m416.029 156.709c-9.714 23.449-16.873 30.608-40.322 40.321-2.803 1.16-4.63 3.896-4.63 6.929s1.827 5.769 4.63 6.929c23.449 9.714 30.608 16.873 40.322 40.322 1.16 2.803 3.896 4.63 6.929 4.63s5.769-1.827 6.929-4.63c9.713-23.449 16.872-30.608 40.321-40.322 2.803-1.16 4.63-3.896 4.63-6.929s-1.827-5.769-4.63-6.929c-23.449-9.713-30.608-16.872-40.321-40.321-1.16-2.803-3.896-4.63-6.929-4.63s-5.769 1.827-6.929 4.63zm33.714 47.25c-12.337 6.792-19.994 14.449-26.785 26.786-6.791-12.337-14.449-19.995-26.786-26.786 12.337-6.791 19.994-14.448 26.786-26.785 6.791 12.336 14.448 19.994 26.785 26.785z"></path></g><g></g><g></g><g></g><g></g><g></g><g></g><g></g><g></g><g></g><g></g><g></g><g></g><g></g><g></g><g></g></svg>