<svg xmlns="http://www.w3.org/2000/svg" id="Outline" height="512" viewBox="0 0 64 64" width="512"><g><path d="m5 51h3.586l-1.293 1.293c-.391.391-.391 1.023 0 1.414 4.293 4.293 5.357 4.293 5.707 4.293h1.987l-.02 1.521c-.005.383.21.736.553.907.349.174 7.301 3.583 17.178 3.583 2.027 0 4.18-.144 6.422-.489.348-.053.641-.285.773-.611l.464-1.139.936.935c.211.21.507.313.802.289.717-.068 17.612-1.774 21.808-10.565.114-.239.129-.515.04-.765s-.272-.455-.513-.569l-20.43-9.728v-4.369c0-.009-.005-.016-.005-.025s.004-.017.004-.027c-.003-.053-.28-5.389-.929-11.463-.299-2.809.234-5.797 1.588-8.88 1.415-3.227.43-7.537-2.93-12.811-.609-.958-1.43-1.796-2.372-2.425-1.342-.895-2.907-1.369-4.522-1.369h-3.046c-2.471 0-5.272 1.731-6.377 3.941l-.172.344c-.859 1.719-.73 3.78.335 5.379.558.836 1.491 1.336 2.496 1.336h.93c1.654 0 3-1.346 3-3 0-.307-.143-.597-.384-.787-.242-.191-.562-.258-.857-.184-.43.106-.949.154-1.259.124.053-.13.149-.325.332-.598.329-.494.928-1.116 2.318-.804 1.434.32 2.664 1.449 3.212 2.946.926 2.532-.729 3.589-3.565 5.03-.98.498-1.905.968-2.504 1.566-.697.697-1.226 1.75-1.617 3.218-.817 3.074-2.178 6.181-4.28 9.778-1.157 1.979-1.805 3.877-1.927 5.643-.037.551.379 1.028.93 1.066.553.04 1.028-.378 1.066-.929.1-1.455.657-3.059 1.657-4.77 2.196-3.757 3.622-7.021 4.487-10.273.365-1.375.799-2.019 1.098-2.318.374-.374 1.161-.774 1.995-1.197 2.445-1.242 6.14-3.119 4.539-7.5-.78-2.13-2.563-3.744-4.655-4.211-1.861-.415-3.432.169-4.418 1.646-.797 1.195-.94 2.17-.427 2.899.23.327.554.532.914.656h-.585c-.335 0-.646-.167-.832-.445-.669-1.003-.749-2.297-.21-3.375l.172-.345c.769-1.537 2.869-2.836 4.588-2.836h3.046c1.219 0 2.399.357 3.413 1.034.713.475 1.333 1.109 1.794 1.834 3.711 5.826 3.563 9.162 2.785 10.934-1.494 3.407-2.081 6.736-1.744 9.896.473 4.436.746 8.466.859 10.302h-2.941c0-1.103-.897-2-2-2h-8c-1.103 0-2 .897-2 2h-4c-.553 0-1 .448-1 1v3.791c-3.625-.641-14.4-2.141-20.496 1.341-.399.229-.592.7-.466 1.143.825 2.885 2.566 7.725 4.962 7.725zm23-15h8v.999.001s0 0 0 .001l.001 5.999h-8.001zm-5 2h3v3h-3zm-1.209 4.978c.031.007.062-.005.094-.001.039.005.074.023.115.023h4c0 1.103.897 2 2 2h8c1.103 0 2-.897 2-2v-5h3v3h-1c-.553 0-1 .448-1 1s.447 1 1 1h1.774l18.799 8.952-4.641 1.989-6.658-1.902c-.409-.116-.854.041-1.099.395-.243.354-.233.823.024 1.167l2.057 2.743c-9.495 1.412-24.557-6.021-28.04-7.831l.731-2.196c.116-.346.033-.728-.215-.996-.248-.267-.623-.378-.976-.291l-3.698.924-7.708-2.891c-.078-.029-.159-.048-.241-.057l-4.746-.527c6.948-1.484 16.316.475 16.428.499zm-12.025 2.002 7.883 2.957c.19.07.397.082.594.034l2.233-.558-.424 1.271c-.153.458.043.96.467 1.192.727.4 15.859 8.642 27.176 8.642 1.619 0 3.16-.168 4.568-.553.32-.087.575-.327.684-.64.107-.313.053-.66-.146-.925l-1.216-1.622 4.142 1.183c.222.064.458.048.668-.042l3.586-1.537c-5.069 4.779-15.32 6.287-17.614 6.57l-1.659-1.659c-.236-.236-.571-.341-.905-.273-.328.066-.602.292-.728.603l-.816 2.004c-10.556 1.467-19.067-1.778-21.282-2.734l.023-1.88c.003-.268-.101-.525-.288-.715-.189-.191-.444-.298-.712-.298h-2.924c-.543-.202-2.176-1.592-3.654-3.008l2.285-2.285c.286-.286.372-.716.217-1.09-.154-.373-.52-.617-.924-.617l-5.979.002c-.599-.145-1.726-2.3-2.6-4.838z"></path><path d="m34 37h-4c-.553 0-1 .448-1 1v3c0 .552.447 1 1 1h4c.553 0 1-.448 1-1v-3c0-.552-.447-1-1-1zm-1 3h-2v-1h2z"></path></g></svg>